<?xml version="1.0" encoding="utf-8" standalone="no"?>
<!DOCTYPE svg PUBLIC "-//W3C//DTD SVG 1.1//EN"
  "http://www.w3.org/Graphics/SVG/1.1/DTD/svg11.dtd">
<svg xmlns:xlink="http://www.w3.org/1999/xlink" width="640.52375pt" height="711.034375pt" viewBox="0 0 640.52375 711.034375" xmlns="http://www.w3.org/2000/svg" version="1.1">
 <metadata>
  <rdf:RDF xmlns:dc="http://purl.org/dc/elements/1.1/" xmlns:cc="http://creativecommons.org/ns#" xmlns:rdf="http://www.w3.org/1999/02/22-rdf-syntax-ns#">
   <cc:Work>
    <dc:type rdf:resource="http://purl.org/dc/dcmitype/StillImage"/>
    <dc:date>2026-03-25T15:50:30.001144</dc:date>
    <dc:format>image/svg+xml</dc:format>
    <dc:creator>
     <cc:Agent>
      <dc:title>Matplotlib v3.9.4, https://matplotlib.org/</dc:title>
     </cc:Agent>
    </dc:creator>
   </cc:Work>
  </rdf:RDF>
 </metadata>
 <defs>
  <style type="text/css">*{stroke-linejoin: round; stroke-linecap: butt}</style>
 </defs>
 <g id="figure_1">
  <g id="patch_1">
   <path d="M 0 711.034375 
L 640.52375 711.034375 
L 640.52375 0 
L 0 0 
z
" style="fill: #ffffff"/>
  </g>
  <g id="axes_1">
   <g id="patch_2">
    <path d="M 50.14375 229.838125 
L 633.32375 229.838125 
L 633.32375 22.318125 
L 50.14375 22.318125 
z
" style="fill: #ffffff"/>
   </g>
   <g id="PolyCollection_1">
    <defs>
     <path id="m7a8d941ead" d="M 76.651932 -630.88919 
L 76.651932 -580.535951 
L 103.160114 -576.587518 
L 129.668295 -569.439785 
L 156.176477 -547.807434 
L 182.684659 -534.000505 
L 209.192841 -540.132382 
L 235.701023 -509.476401 
L 262.209205 -528.232649 
L 288.717386 -522.786628 
L 315.225568 -517.981556 
L 341.73375 -514.134504 
L 368.241932 -512.777762 
L 394.750114 -513.085989 
L 421.258295 -518.217659 
L 447.766477 -518.68102 
L 474.274659 -519.204257 
L 500.782841 -518.602092 
L 527.291023 -520.625639 
L 553.799205 -515.257865 
L 580.307386 -499.923411 
L 606.815568 -490.628977 
L 606.815568 -583.605972 
L 606.815568 -583.605972 
L 580.307386 -595.137601 
L 553.799205 -596.942735 
L 527.291023 -603.410055 
L 500.782841 -615.796282 
L 474.274659 -620.054984 
L 447.766477 -623.310757 
L 421.258295 -636.455644 
L 394.750114 -633.305335 
L 368.241932 -627.096572 
L 341.73375 -629.804613 
L 315.225568 -619.443293 
L 288.717386 -646.311418 
L 262.209205 -603.825107 
L 235.701023 -607.83954 
L 209.192841 -610.0502 
L 182.684659 -612.313251 
L 156.176477 -613.589705 
L 129.668295 -613.719664 
L 103.160114 -630.027108 
L 76.651932 -630.88919 
z
" style="stroke: #1f4e79; stroke-opacity: 0.14"/>
    </defs>
    <g clip-path="url(#p136e03ab98)">
     <use xlink:href="#m7a8d941ead" x="0" y="711.034375" style="fill: #1f4e79; fill-opacity: 0.14; stroke: #1f4e79; stroke-opacity: 0.14"/>
    </g>
   </g>
   <g id="patch_3">
    <path d="M 262.209205 229.838125 
L 606.815568 229.838125 
L 606.815568 22.318125 
L 262.209205 22.318125 
z
" clip-path="url(#p136e03ab98)" style="fill: #1f4e79; opacity: 0.06; stroke: #1f4e79; stroke-linejoin: miter"/>
   </g>
   <g id="PolyCollection_2">
    <defs>
     <path id="m0373bd00f3" d="M 76.651932 -679.283523 
L 76.651932 -658.483316 
L 103.160114 -646.590387 
L 129.668295 -641.87649 
L 156.176477 -632.690922 
L 182.684659 -619.492283 
L 209.192841 -611.064695 
L 235.701023 -602.18055 
L 262.209205 -597.845642 
L 288.717386 -590.750982 
L 315.225568 -583.33993 
L 341.73375 -578.524652 
L 368.241932 -568.934239 
L 394.750114 -564.572115 
L 421.258295 -560.277352 
L 447.766477 -552.405661 
L 474.274659 -546.155392 
L 500.782841 -537.674052 
L 527.291023 -529.067515 
L 553.799205 -523.313268 
L 580.307386 -518.491865 
L 606.815568 -514.492401 
L 606.815568 -557.128403 
L 606.815568 -557.128403 
L 580.307386 -556.834465 
L 553.799205 -556.544609 
L 527.291023 -557.039269 
L 500.782841 -560.176651 
L 474.274659 -565.453249 
L 447.766477 -573.601868 
L 421.258295 -583.80193 
L 394.750114 -590.938096 
L 368.241932 -598.88191 
L 341.73375 -606.991746 
L 315.225568 -621.057912 
L 288.717386 -627.559933 
L 262.209205 -628.877891 
L 235.701023 -635.27717 
L 209.192841 -643.154304 
L 182.684659 -644.170841 
L 156.176477 -654.310346 
L 129.668295 -667.122512 
L 103.160114 -672.587584 
L 76.651932 -679.283523 
z
" style="stroke: #c6651a; stroke-opacity: 0.14"/>
    </defs>
    <g clip-path="url(#p136e03ab98)">
     <use xlink:href="#m0373bd00f3" x="0" y="711.034375" style="fill: #c6651a; fill-opacity: 0.14; stroke: #c6651a; stroke-opacity: 0.14"/>
    </g>
   </g>
   <g id="patch_4">
    <path d="M 288.717386 229.838125 
L 421.258295 229.838125 
L 421.258295 22.318125 
L 288.717386 22.318125 
z
" clip-path="url(#p136e03ab98)" style="fill: #c6651a; opacity: 0.06; stroke: #c6651a; stroke-linejoin: miter"/>
   </g>
   <g id="matplotlib.axis_1">
    <g id="xtick_1">
     <g id="line2d_1">
      <path d="M 76.651932 229.838125 
L 76.651932 22.318125 
" clip-path="url(#p136e03ab98)" style="fill: none; stroke: #b0b0b0; stroke-opacity: 0.25; stroke-width: 0.8; stroke-linecap: square"/>
     </g>
     <g id="line2d_2">
      <defs>
       <path id="m33b9faa08e" d="M 0 0 
L 0 3.5 
" style="stroke: #000000; stroke-width: 0.8"/>
      </defs>
      <g>
       <use xlink:href="#m33b9faa08e" x="76.651932" y="229.838125" style="stroke: #000000; stroke-width: 0.8"/>
      </g>
     </g>
    </g>
    <g id="xtick_2">
     <g id="line2d_3">
      <path d="M 182.684659 229.838125 
L 182.684659 22.318125 
" clip-path="url(#p136e03ab98)" style="fill: none; stroke: #b0b0b0; stroke-opacity: 0.25; stroke-width: 0.8; stroke-linecap: square"/>
     </g>
     <g id="line2d_4">
      <g>
       <use xlink:href="#m33b9faa08e" x="182.684659" y="229.838125" style="stroke: #000000; stroke-width: 0.8"/>
      </g>
     </g>
    </g>
    <g id="xtick_3">
     <g id="line2d_5">
      <path d="M 288.717386 229.838125 
L 288.717386 22.318125 
" clip-path="url(#p136e03ab98)" style="fill: none; stroke: #b0b0b0; stroke-opacity: 0.25; stroke-width: 0.8; stroke-linecap: square"/>
     </g>
     <g id="line2d_6">
      <g>
       <use xlink:href="#m33b9faa08e" x="288.717386" y="229.838125" style="stroke: #000000; stroke-width: 0.8"/>
      </g>
     </g>
    </g>
    <g id="xtick_4">
     <g id="line2d_7">
      <path d="M 394.750114 229.838125 
L 394.750114 22.318125 
" clip-path="url(#p136e03ab98)" style="fill: none; stroke: #b0b0b0; stroke-opacity: 0.25; stroke-width: 0.8; stroke-linecap: square"/>
     </g>
     <g id="line2d_8">
      <g>
       <use xlink:href="#m33b9faa08e" x="394.750114" y="229.838125" style="stroke: #000000; stroke-width: 0.8"/>
      </g>
     </g>
    </g>
    <g id="xtick_5">
     <g id="line2d_9">
      <path d="M 500.782841 229.838125 
L 500.782841 22.318125 
" clip-path="url(#p136e03ab98)" style="fill: none; stroke: #b0b0b0; stroke-opacity: 0.25; stroke-width: 0.8; stroke-linecap: square"/>
     </g>
     <g id="line2d_10">
      <g>
       <use xlink:href="#m33b9faa08e" x="500.782841" y="229.838125" style="stroke: #000000; stroke-width: 0.8"/>
      </g>
     </g>
    </g>
    <g id="xtick_6">
     <g id="line2d_11">
      <path d="M 606.815568 229.838125 
L 606.815568 22.318125 
" clip-path="url(#p136e03ab98)" style="fill: none; stroke: #b0b0b0; stroke-opacity: 0.25; stroke-width: 0.8; stroke-linecap: square"/>
     </g>
     <g id="line2d_12">
      <g>
       <use xlink:href="#m33b9faa08e" x="606.815568" y="229.838125" style="stroke: #000000; stroke-width: 0.8"/>
      </g>
     </g>
    </g>
   </g>
   <g id="matplotlib.axis_2">
    <g id="ytick_1">
     <g id="line2d_13">
      <path d="M 50.14375 202.841232 
L 633.32375 202.841232 
" clip-path="url(#p136e03ab98)" style="fill: none; stroke: #b0b0b0; stroke-opacity: 0.25; stroke-width: 0.8; stroke-linecap: square"/>
     </g>
     <g id="line2d_14">
      <defs>
       <path id="m203680029d" d="M 0 0 
L -3.5 0 
" style="stroke: #000000; stroke-width: 0.8"/>
      </defs>
      <g>
       <use xlink:href="#m203680029d" x="50.14375" y="202.841232" style="stroke: #000000; stroke-width: 0.8"/>
      </g>
     </g>
     <g id="text_1">
      <!-- 0.35 -->
      <g transform="translate(20.878125 206.640451) scale(0.1 -0.1)">
       <defs>
        <path id="DejaVuSans-30" d="M 2034 4250 
Q 1547 4250 1301 3770 
Q 1056 3291 1056 2328 
Q 1056 1369 1301 889 
Q 1547 409 2034 409 
Q 2525 409 2770 889 
Q 3016 1369 3016 2328 
Q 3016 3291 2770 3770 
Q 2525 4250 2034 4250 
z
M 2034 4750 
Q 2819 4750 3233 4129 
Q 3647 3509 3647 2328 
Q 3647 1150 3233 529 
Q 2819 -91 2034 -91 
Q 1250 -91 836 529 
Q 422 1150 422 2328 
Q 422 3509 836 4129 
Q 1250 4750 2034 4750 
z
" transform="scale(0.015625)"/>
        <path id="DejaVuSans-2e" d="M 684 794 
L 1344 794 
L 1344 0 
L 684 0 
L 684 794 
z
" transform="scale(0.015625)"/>
        <path id="DejaVuSans-33" d="M 2597 2516 
Q 3050 2419 3304 2112 
Q 3559 1806 3559 1356 
Q 3559 666 3084 287 
Q 2609 -91 1734 -91 
Q 1441 -91 1130 -33 
Q 819 25 488 141 
L 488 750 
Q 750 597 1062 519 
Q 1375 441 1716 441 
Q 2309 441 2620 675 
Q 2931 909 2931 1356 
Q 2931 1769 2642 2001 
Q 2353 2234 1838 2234 
L 1294 2234 
L 1294 2753 
L 1863 2753 
Q 2328 2753 2575 2939 
Q 2822 3125 2822 3475 
Q 2822 3834 2567 4026 
Q 2313 4219 1838 4219 
Q 1578 4219 1281 4162 
Q 984 4106 628 3988 
L 628 4550 
Q 988 4650 1302 4700 
Q 1616 4750 1894 4750 
Q 2613 4750 3031 4423 
Q 3450 4097 3450 3541 
Q 3450 3153 3228 2886 
Q 3006 2619 2597 2516 
z
" transform="scale(0.015625)"/>
        <path id="DejaVuSans-35" d="M 691 4666 
L 3169 4666 
L 3169 4134 
L 1269 4134 
L 1269 2991 
Q 1406 3038 1543 3061 
Q 1681 3084 1819 3084 
Q 2600 3084 3056 2656 
Q 3513 2228 3513 1497 
Q 3513 744 3044 326 
Q 2575 -91 1722 -91 
Q 1428 -91 1123 -41 
Q 819 9 494 109 
L 494 744 
Q 775 591 1075 516 
Q 1375 441 1709 441 
Q 2250 441 2565 725 
Q 2881 1009 2881 1497 
Q 2881 1984 2565 2268 
Q 2250 2553 1709 2553 
Q 1456 2553 1204 2497 
Q 953 2441 691 2322 
L 691 4666 
z
" transform="scale(0.015625)"/>
       </defs>
       <use xlink:href="#DejaVuSans-30"/>
       <use xlink:href="#DejaVuSans-2e" x="63.623047"/>
       <use xlink:href="#DejaVuSans-33" x="95.410156"/>
       <use xlink:href="#DejaVuSans-35" x="159.033203"/>
      </g>
     </g>
    </g>
    <g id="ytick_2">
     <g id="line2d_15">
      <path d="M 50.14375 168.820612 
L 633.32375 168.820612 
" clip-path="url(#p136e03ab98)" style="fill: none; stroke: #b0b0b0; stroke-opacity: 0.25; stroke-width: 0.8; stroke-linecap: square"/>
     </g>
     <g id="line2d_16">
      <g>
       <use xlink:href="#m203680029d" x="50.14375" y="168.820612" style="stroke: #000000; stroke-width: 0.8"/>
      </g>
     </g>
     <g id="text_2">
      <!-- 0.40 -->
      <g transform="translate(20.878125 172.61983) scale(0.1 -0.1)">
       <defs>
        <path id="DejaVuSans-34" d="M 2419 4116 
L 825 1625 
L 2419 1625 
L 2419 4116 
z
M 2253 4666 
L 3047 4666 
L 3047 1625 
L 3713 1625 
L 3713 1100 
L 3047 1100 
L 3047 0 
L 2419 0 
L 2419 1100 
L 313 1100 
L 313 1709 
L 2253 4666 
z
" transform="scale(0.015625)"/>
       </defs>
       <use xlink:href="#DejaVuSans-30"/>
       <use xlink:href="#DejaVuSans-2e" x="63.623047"/>
       <use xlink:href="#DejaVuSans-34" x="95.410156"/>
       <use xlink:href="#DejaVuSans-30" x="159.033203"/>
      </g>
     </g>
    </g>
    <g id="ytick_3">
     <g id="line2d_17">
      <path d="M 50.14375 134.799991 
L 633.32375 134.799991 
" clip-path="url(#p136e03ab98)" style="fill: none; stroke: #b0b0b0; stroke-opacity: 0.25; stroke-width: 0.8; stroke-linecap: square"/>
     </g>
     <g id="line2d_18">
      <g>
       <use xlink:href="#m203680029d" x="50.14375" y="134.799991" style="stroke: #000000; stroke-width: 0.8"/>
      </g>
     </g>
     <g id="text_3">
      <!-- 0.45 -->
      <g transform="translate(20.878125 138.59921) scale(0.1 -0.1)">
       <use xlink:href="#DejaVuSans-30"/>
       <use xlink:href="#DejaVuSans-2e" x="63.623047"/>
       <use xlink:href="#DejaVuSans-34" x="95.410156"/>
       <use xlink:href="#DejaVuSans-35" x="159.033203"/>
      </g>
     </g>
    </g>
    <g id="ytick_4">
     <g id="line2d_19">
      <path d="M 50.14375 100.779371 
L 633.32375 100.779371 
" clip-path="url(#p136e03ab98)" style="fill: none; stroke: #b0b0b0; stroke-opacity: 0.25; stroke-width: 0.8; stroke-linecap: square"/>
     </g>
     <g id="line2d_20">
      <g>
       <use xlink:href="#m203680029d" x="50.14375" y="100.779371" style="stroke: #000000; stroke-width: 0.8"/>
      </g>
     </g>
     <g id="text_4">
      <!-- 0.50 -->
      <g transform="translate(20.878125 104.57859) scale(0.1 -0.1)">
       <use xlink:href="#DejaVuSans-30"/>
       <use xlink:href="#DejaVuSans-2e" x="63.623047"/>
       <use xlink:href="#DejaVuSans-35" x="95.410156"/>
       <use xlink:href="#DejaVuSans-30" x="159.033203"/>
      </g>
     </g>
    </g>
    <g id="ytick_5">
     <g id="line2d_21">
      <path d="M 50.14375 66.758751 
L 633.32375 66.758751 
" clip-path="url(#p136e03ab98)" style="fill: none; stroke: #b0b0b0; stroke-opacity: 0.25; stroke-width: 0.8; stroke-linecap: square"/>
     </g>
     <g id="line2d_22">
      <g>
       <use xlink:href="#m203680029d" x="50.14375" y="66.758751" style="stroke: #000000; stroke-width: 0.8"/>
      </g>
     </g>
     <g id="text_5">
      <!-- 0.55 -->
      <g transform="translate(20.878125 70.55797) scale(0.1 -0.1)">
       <use xlink:href="#DejaVuSans-30"/>
       <use xlink:href="#DejaVuSans-2e" x="63.623047"/>
       <use xlink:href="#DejaVuSans-35" x="95.410156"/>
       <use xlink:href="#DejaVuSans-35" x="159.033203"/>
      </g>
     </g>
    </g>
    <g id="ytick_6">
     <g id="line2d_23">
      <path d="M 50.14375 32.738131 
L 633.32375 32.738131 
" clip-path="url(#p136e03ab98)" style="fill: none; stroke: #b0b0b0; stroke-opacity: 0.25; stroke-width: 0.8; stroke-linecap: square"/>
     </g>
     <g id="line2d_24">
      <g>
       <use xlink:href="#m203680029d" x="50.14375" y="32.738131" style="stroke: #000000; stroke-width: 0.8"/>
      </g>
     </g>
     <g id="text_6">
      <!-- 0.60 -->
      <g transform="translate(20.878125 36.537349) scale(0.1 -0.1)">
       <defs>
        <path id="DejaVuSans-36" d="M 2113 2584 
Q 1688 2584 1439 2293 
Q 1191 2003 1191 1497 
Q 1191 994 1439 701 
Q 1688 409 2113 409 
Q 2538 409 2786 701 
Q 3034 994 3034 1497 
Q 3034 2003 2786 2293 
Q 2538 2584 2113 2584 
z
M 3366 4563 
L 3366 3988 
Q 3128 4100 2886 4159 
Q 2644 4219 2406 4219 
Q 1781 4219 1451 3797 
Q 1122 3375 1075 2522 
Q 1259 2794 1537 2939 
Q 1816 3084 2150 3084 
Q 2853 3084 3261 2657 
Q 3669 2231 3669 1497 
Q 3669 778 3244 343 
Q 2819 -91 2113 -91 
Q 1303 -91 875 529 
Q 447 1150 447 2328 
Q 447 3434 972 4092 
Q 1497 4750 2381 4750 
Q 2619 4750 2861 4703 
Q 3103 4656 3366 4563 
z
" transform="scale(0.015625)"/>
       </defs>
       <use xlink:href="#DejaVuSans-30"/>
       <use xlink:href="#DejaVuSans-2e" x="63.623047"/>
       <use xlink:href="#DejaVuSans-36" x="95.410156"/>
       <use xlink:href="#DejaVuSans-30" x="159.033203"/>
      </g>
     </g>
    </g>
    <g id="text_7">
     <!-- Distortion score -->
     <g transform="translate(14.798438 165.596094) rotate(-90) scale(0.1 -0.1)">
      <defs>
       <path id="DejaVuSans-44" d="M 1259 4147 
L 1259 519 
L 2022 519 
Q 2988 519 3436 956 
Q 3884 1394 3884 2338 
Q 3884 3275 3436 3711 
Q 2988 4147 2022 4147 
L 1259 4147 
z
M 628 4666 
L 1925 4666 
Q 3281 4666 3915 4102 
Q 4550 3538 4550 2338 
Q 4550 1131 3912 565 
Q 3275 0 1925 0 
L 628 0 
L 628 4666 
z
" transform="scale(0.015625)"/>
       <path id="DejaVuSans-69" d="M 603 3500 
L 1178 3500 
L 1178 0 
L 603 0 
L 603 3500 
z
M 603 4863 
L 1178 4863 
L 1178 4134 
L 603 4134 
L 603 4863 
z
" transform="scale(0.015625)"/>
       <path id="DejaVuSans-73" d="M 2834 3397 
L 2834 2853 
Q 2591 2978 2328 3040 
Q 2066 3103 1784 3103 
Q 1356 3103 1142 2972 
Q 928 2841 928 2578 
Q 928 2378 1081 2264 
Q 1234 2150 1697 2047 
L 1894 2003 
Q 2506 1872 2764 1633 
Q 3022 1394 3022 966 
Q 3022 478 2636 193 
Q 2250 -91 1575 -91 
Q 1294 -91 989 -36 
Q 684 19 347 128 
L 347 722 
Q 666 556 975 473 
Q 1284 391 1588 391 
Q 1994 391 2212 530 
Q 2431 669 2431 922 
Q 2431 1156 2273 1281 
Q 2116 1406 1581 1522 
L 1381 1569 
Q 847 1681 609 1914 
Q 372 2147 372 2553 
Q 372 3047 722 3315 
Q 1072 3584 1716 3584 
Q 2034 3584 2315 3537 
Q 2597 3491 2834 3397 
z
" transform="scale(0.015625)"/>
       <path id="DejaVuSans-74" d="M 1172 4494 
L 1172 3500 
L 2356 3500 
L 2356 3053 
L 1172 3053 
L 1172 1153 
Q 1172 725 1289 603 
Q 1406 481 1766 481 
L 2356 481 
L 2356 0 
L 1766 0 
Q 1100 0 847 248 
Q 594 497 594 1153 
L 594 3053 
L 172 3053 
L 172 3500 
L 594 3500 
L 594 4494 
L 1172 4494 
z
" transform="scale(0.015625)"/>
       <path id="DejaVuSans-6f" d="M 1959 3097 
Q 1497 3097 1228 2736 
Q 959 2375 959 1747 
Q 959 1119 1226 758 
Q 1494 397 1959 397 
Q 2419 397 2687 759 
Q 2956 1122 2956 1747 
Q 2956 2369 2687 2733 
Q 2419 3097 1959 3097 
z
M 1959 3584 
Q 2709 3584 3137 3096 
Q 3566 2609 3566 1747 
Q 3566 888 3137 398 
Q 2709 -91 1959 -91 
Q 1206 -91 779 398 
Q 353 888 353 1747 
Q 353 2609 779 3096 
Q 1206 3584 1959 3584 
z
" transform="scale(0.015625)"/>
       <path id="DejaVuSans-72" d="M 2631 2963 
Q 2534 3019 2420 3045 
Q 2306 3072 2169 3072 
Q 1681 3072 1420 2755 
Q 1159 2438 1159 1844 
L 1159 0 
L 581 0 
L 581 3500 
L 1159 3500 
L 1159 2956 
Q 1341 3275 1631 3429 
Q 1922 3584 2338 3584 
Q 2397 3584 2469 3576 
Q 2541 3569 2628 3553 
L 2631 2963 
z
" transform="scale(0.015625)"/>
       <path id="DejaVuSans-6e" d="M 3513 2113 
L 3513 0 
L 2938 0 
L 2938 2094 
Q 2938 2591 2744 2837 
Q 2550 3084 2163 3084 
Q 1697 3084 1428 2787 
Q 1159 2491 1159 1978 
L 1159 0 
L 581 0 
L 581 3500 
L 1159 3500 
L 1159 2956 
Q 1366 3272 1645 3428 
Q 1925 3584 2291 3584 
Q 2894 3584 3203 3211 
Q 3513 2838 3513 2113 
z
" transform="scale(0.015625)"/>
       <path id="DejaVuSans-20" transform="scale(0.015625)"/>
       <path id="DejaVuSans-63" d="M 3122 3366 
L 3122 2828 
Q 2878 2963 2633 3030 
Q 2388 3097 2138 3097 
Q 1578 3097 1268 2742 
Q 959 2388 959 1747 
Q 959 1106 1268 751 
Q 1578 397 2138 397 
Q 2388 397 2633 464 
Q 2878 531 3122 666 
L 3122 134 
Q 2881 22 2623 -34 
Q 2366 -91 2075 -91 
Q 1284 -91 818 406 
Q 353 903 353 1747 
Q 353 2603 823 3093 
Q 1294 3584 2113 3584 
Q 2378 3584 2631 3529 
Q 2884 3475 3122 3366 
z
" transform="scale(0.015625)"/>
       <path id="DejaVuSans-65" d="M 3597 1894 
L 3597 1613 
L 953 1613 
Q 991 1019 1311 708 
Q 1631 397 2203 397 
Q 2534 397 2845 478 
Q 3156 559 3463 722 
L 3463 178 
Q 3153 47 2828 -22 
Q 2503 -91 2169 -91 
Q 1331 -91 842 396 
Q 353 884 353 1716 
Q 353 2575 817 3079 
Q 1281 3584 2069 3584 
Q 2775 3584 3186 3129 
Q 3597 2675 3597 1894 
z
M 3022 2063 
Q 3016 2534 2758 2815 
Q 2500 3097 2075 3097 
Q 1594 3097 1305 2825 
Q 1016 2553 972 2059 
L 3022 2063 
z
" transform="scale(0.015625)"/>
      </defs>
      <use xlink:href="#DejaVuSans-44"/>
      <use xlink:href="#DejaVuSans-69" x="77.001953"/>
      <use xlink:href="#DejaVuSans-73" x="104.785156"/>
      <use xlink:href="#DejaVuSans-74" x="156.884766"/>
      <use xlink:href="#DejaVuSans-6f" x="196.09375"/>
      <use xlink:href="#DejaVuSans-72" x="257.275391"/>
      <use xlink:href="#DejaVuSans-74" x="298.388672"/>
      <use xlink:href="#DejaVuSans-69" x="337.597656"/>
      <use xlink:href="#DejaVuSans-6f" x="365.380859"/>
      <use xlink:href="#DejaVuSans-6e" x="426.5625"/>
      <use xlink:href="#DejaVuSans-20" x="489.941406"/>
      <use xlink:href="#DejaVuSans-73" x="521.728516"/>
      <use xlink:href="#DejaVuSans-63" x="573.828125"/>
      <use xlink:href="#DejaVuSans-6f" x="628.808594"/>
      <use xlink:href="#DejaVuSans-72" x="689.990234"/>
      <use xlink:href="#DejaVuSans-65" x="728.853516"/>
     </g>
    </g>
   </g>
   <g id="line2d_25">
    <path d="M 76.651932 105.321804 
L 103.160114 107.727062 
L 129.668295 119.45465 
L 156.176477 130.335806 
L 182.684659 137.877497 
L 209.192841 135.943084 
L 235.701023 152.376405 
L 262.209205 145.005497 
L 288.717386 126.485352 
L 315.225568 142.321951 
L 341.73375 139.064816 
L 368.241932 141.097208 
L 394.750114 137.838713 
L 421.258295 133.697723 
L 447.766477 140.038487 
L 474.274659 141.404755 
L 500.782841 143.835188 
L 527.291023 149.016528 
L 553.799205 154.934075 
L 580.307386 163.503869 
L 606.815568 173.916901 
" clip-path="url(#p136e03ab98)" style="fill: none; stroke: #1f4e79; stroke-width: 2.2; stroke-linecap: square"/>
   </g>
   <g id="line2d_26">
    <path d="M 427.885341 229.838125 
L 427.885341 22.318125 
" clip-path="url(#p136e03ab98)" style="fill: none; stroke-dasharray: 4.44,1.92; stroke-dashoffset: 0; stroke: #1f4e79; stroke-width: 1.2"/>
   </g>
   <g id="line2d_27">
    <path d="M 76.651932 42.150956 
L 103.160114 51.445389 
L 129.668295 56.534874 
L 156.176477 67.533741 
L 182.684659 79.202813 
L 209.192841 83.924875 
L 235.701023 92.305515 
L 262.209205 97.672608 
L 288.717386 101.878918 
L 315.225568 108.835454 
L 341.73375 118.276176 
L 368.241932 127.1263 
L 394.750114 133.27927 
L 421.258295 138.994734 
L 447.766477 148.030611 
L 474.274659 155.230054 
L 500.782841 162.109024 
L 527.291023 167.980983 
L 553.799205 171.105437 
L 580.307386 173.37121 
L 606.815568 175.223973 
" clip-path="url(#p136e03ab98)" style="fill: none; stroke: #c6651a; stroke-width: 2.2; stroke-linecap: square"/>
   </g>
   <g id="line2d_28">
    <path d="M 331.130477 229.838125 
L 331.130477 22.318125 
" clip-path="url(#p136e03ab98)" style="fill: none; stroke-dasharray: 4.44,1.92; stroke-dashoffset: 0; stroke: #c6651a; stroke-width: 1.2"/>
   </g>
   <g id="patch_5">
    <path d="M 50.14375 229.838125 
L 50.14375 22.318125 
" style="fill: none; stroke: #000000; stroke-width: 0.8; stroke-linejoin: miter; stroke-linecap: square"/>
   </g>
   <g id="patch_6">
    <path d="M 633.32375 229.838125 
L 633.32375 22.318125 
" style="fill: none; stroke: #000000; stroke-width: 0.8; stroke-linejoin: miter; stroke-linecap: square"/>
   </g>
   <g id="patch_7">
    <path d="M 50.14375 229.838125 
L 633.32375 229.838125 
" style="fill: none; stroke: #000000; stroke-width: 0.8; stroke-linejoin: miter; stroke-linecap: square"/>
   </g>
   <g id="patch_8">
    <path d="M 50.14375 22.318125 
L 633.32375 22.318125 
" style="fill: none; stroke: #000000; stroke-width: 0.8; stroke-linejoin: miter; stroke-linecap: square"/>
   </g>
   <g id="text_8">
    <!-- Canonical Geometry Transition Panel -->
    <g transform="translate(231.445312 16.318125) scale(0.12 -0.12)">
     <defs>
      <path id="DejaVuSans-43" d="M 4122 4306 
L 4122 3641 
Q 3803 3938 3442 4084 
Q 3081 4231 2675 4231 
Q 1875 4231 1450 3742 
Q 1025 3253 1025 2328 
Q 1025 1406 1450 917 
Q 1875 428 2675 428 
Q 3081 428 3442 575 
Q 3803 722 4122 1019 
L 4122 359 
Q 3791 134 3420 21 
Q 3050 -91 2638 -91 
Q 1578 -91 968 557 
Q 359 1206 359 2328 
Q 359 3453 968 4101 
Q 1578 4750 2638 4750 
Q 3056 4750 3426 4639 
Q 3797 4528 4122 4306 
z
" transform="scale(0.015625)"/>
      <path id="DejaVuSans-61" d="M 2194 1759 
Q 1497 1759 1228 1600 
Q 959 1441 959 1056 
Q 959 750 1161 570 
Q 1363 391 1709 391 
Q 2188 391 2477 730 
Q 2766 1069 2766 1631 
L 2766 1759 
L 2194 1759 
z
M 3341 1997 
L 3341 0 
L 2766 0 
L 2766 531 
Q 2569 213 2275 61 
Q 1981 -91 1556 -91 
Q 1019 -91 701 211 
Q 384 513 384 1019 
Q 384 1609 779 1909 
Q 1175 2209 1959 2209 
L 2766 2209 
L 2766 2266 
Q 2766 2663 2505 2880 
Q 2244 3097 1772 3097 
Q 1472 3097 1187 3025 
Q 903 2953 641 2809 
L 641 3341 
Q 956 3463 1253 3523 
Q 1550 3584 1831 3584 
Q 2591 3584 2966 3190 
Q 3341 2797 3341 1997 
z
" transform="scale(0.015625)"/>
      <path id="DejaVuSans-6c" d="M 603 4863 
L 1178 4863 
L 1178 0 
L 603 0 
L 603 4863 
z
" transform="scale(0.015625)"/>
      <path id="DejaVuSans-47" d="M 3809 666 
L 3809 1919 
L 2778 1919 
L 2778 2438 
L 4434 2438 
L 4434 434 
Q 4069 175 3628 42 
Q 3188 -91 2688 -91 
Q 1594 -91 976 548 
Q 359 1188 359 2328 
Q 359 3472 976 4111 
Q 1594 4750 2688 4750 
Q 3144 4750 3555 4637 
Q 3966 4525 4313 4306 
L 4313 3634 
Q 3963 3931 3569 4081 
Q 3175 4231 2741 4231 
Q 1884 4231 1454 3753 
Q 1025 3275 1025 2328 
Q 1025 1384 1454 906 
Q 1884 428 2741 428 
Q 3075 428 3337 486 
Q 3600 544 3809 666 
z
" transform="scale(0.015625)"/>
      <path id="DejaVuSans-6d" d="M 3328 2828 
Q 3544 3216 3844 3400 
Q 4144 3584 4550 3584 
Q 5097 3584 5394 3201 
Q 5691 2819 5691 2113 
L 5691 0 
L 5113 0 
L 5113 2094 
Q 5113 2597 4934 2840 
Q 4756 3084 4391 3084 
Q 3944 3084 3684 2787 
Q 3425 2491 3425 1978 
L 3425 0 
L 2847 0 
L 2847 2094 
Q 2847 2600 2669 2842 
Q 2491 3084 2119 3084 
Q 1678 3084 1418 2786 
Q 1159 2488 1159 1978 
L 1159 0 
L 581 0 
L 581 3500 
L 1159 3500 
L 1159 2956 
Q 1356 3278 1631 3431 
Q 1906 3584 2284 3584 
Q 2666 3584 2933 3390 
Q 3200 3197 3328 2828 
z
" transform="scale(0.015625)"/>
      <path id="DejaVuSans-79" d="M 2059 -325 
Q 1816 -950 1584 -1140 
Q 1353 -1331 966 -1331 
L 506 -1331 
L 506 -850 
L 844 -850 
Q 1081 -850 1212 -737 
Q 1344 -625 1503 -206 
L 1606 56 
L 191 3500 
L 800 3500 
L 1894 763 
L 2988 3500 
L 3597 3500 
L 2059 -325 
z
" transform="scale(0.015625)"/>
      <path id="DejaVuSans-54" d="M -19 4666 
L 3928 4666 
L 3928 4134 
L 2272 4134 
L 2272 0 
L 1638 0 
L 1638 4134 
L -19 4134 
L -19 4666 
z
" transform="scale(0.015625)"/>
      <path id="DejaVuSans-50" d="M 1259 4147 
L 1259 2394 
L 2053 2394 
Q 2494 2394 2734 2622 
Q 2975 2850 2975 3272 
Q 2975 3691 2734 3919 
Q 2494 4147 2053 4147 
L 1259 4147 
z
M 628 4666 
L 2053 4666 
Q 2838 4666 3239 4311 
Q 3641 3956 3641 3272 
Q 3641 2581 3239 2228 
Q 2838 1875 2053 1875 
L 1259 1875 
L 1259 0 
L 628 0 
L 628 4666 
z
" transform="scale(0.015625)"/>
     </defs>
     <use xlink:href="#DejaVuSans-43"/>
     <use xlink:href="#DejaVuSans-61" x="69.824219"/>
     <use xlink:href="#DejaVuSans-6e" x="131.103516"/>
     <use xlink:href="#DejaVuSans-6f" x="194.482422"/>
     <use xlink:href="#DejaVuSans-6e" x="255.664062"/>
     <use xlink:href="#DejaVuSans-69" x="319.042969"/>
     <use xlink:href="#DejaVuSans-63" x="346.826172"/>
     <use xlink:href="#DejaVuSans-61" x="401.806641"/>
     <use xlink:href="#DejaVuSans-6c" x="463.085938"/>
     <use xlink:href="#DejaVuSans-20" x="490.869141"/>
     <use xlink:href="#DejaVuSans-47" x="522.65625"/>
     <use xlink:href="#DejaVuSans-65" x="600.146484"/>
     <use xlink:href="#DejaVuSans-6f" x="661.669922"/>
     <use xlink:href="#DejaVuSans-6d" x="722.851562"/>
     <use xlink:href="#DejaVuSans-65" x="820.263672"/>
     <use xlink:href="#DejaVuSans-74" x="881.787109"/>
     <use xlink:href="#DejaVuSans-72" x="920.996094"/>
     <use xlink:href="#DejaVuSans-79" x="962.109375"/>
     <use xlink:href="#DejaVuSans-20" x="1021.289062"/>
     <use xlink:href="#DejaVuSans-54" x="1053.076172"/>
     <use xlink:href="#DejaVuSans-72" x="1099.410156"/>
     <use xlink:href="#DejaVuSans-61" x="1140.523438"/>
     <use xlink:href="#DejaVuSans-6e" x="1201.802734"/>
     <use xlink:href="#DejaVuSans-73" x="1265.181641"/>
     <use xlink:href="#DejaVuSans-69" x="1317.28125"/>
     <use xlink:href="#DejaVuSans-74" x="1345.064453"/>
     <use xlink:href="#DejaVuSans-69" x="1384.273438"/>
     <use xlink:href="#DejaVuSans-6f" x="1412.056641"/>
     <use xlink:href="#DejaVuSans-6e" x="1473.238281"/>
     <use xlink:href="#DejaVuSans-20" x="1536.617188"/>
     <use xlink:href="#DejaVuSans-50" x="1568.404297"/>
     <use xlink:href="#DejaVuSans-61" x="1624.207031"/>
     <use xlink:href="#DejaVuSans-6e" x="1685.486328"/>
     <use xlink:href="#DejaVuSans-65" x="1748.865234"/>
     <use xlink:href="#DejaVuSans-6c" x="1810.388672"/>
    </g>
   </g>
   <g id="legend_1">
    <g id="line2d_29">
     <path d="M 59.14375 215.258437 
L 69.14375 215.258437 
L 79.14375 215.258437 
" style="fill: none; stroke: #1f4e79; stroke-width: 2.2; stroke-linecap: square"/>
    </g>
    <g id="text_9">
     <!-- Clustered -->
     <g transform="translate(87.14375 218.758437) scale(0.1 -0.1)">
      <defs>
       <path id="DejaVuSans-75" d="M 544 1381 
L 544 3500 
L 1119 3500 
L 1119 1403 
Q 1119 906 1312 657 
Q 1506 409 1894 409 
Q 2359 409 2629 706 
Q 2900 1003 2900 1516 
L 2900 3500 
L 3475 3500 
L 3475 0 
L 2900 0 
L 2900 538 
Q 2691 219 2414 64 
Q 2138 -91 1772 -91 
Q 1169 -91 856 284 
Q 544 659 544 1381 
z
M 1991 3584 
L 1991 3584 
z
" transform="scale(0.015625)"/>
       <path id="DejaVuSans-64" d="M 2906 2969 
L 2906 4863 
L 3481 4863 
L 3481 0 
L 2906 0 
L 2906 525 
Q 2725 213 2448 61 
Q 2172 -91 1784 -91 
Q 1150 -91 751 415 
Q 353 922 353 1747 
Q 353 2572 751 3078 
Q 1150 3584 1784 3584 
Q 2172 3584 2448 3432 
Q 2725 3281 2906 2969 
z
M 947 1747 
Q 947 1113 1208 752 
Q 1469 391 1925 391 
Q 2381 391 2643 752 
Q 2906 1113 2906 1747 
Q 2906 2381 2643 2742 
Q 2381 3103 1925 3103 
Q 1469 3103 1208 2742 
Q 947 2381 947 1747 
z
" transform="scale(0.015625)"/>
      </defs>
      <use xlink:href="#DejaVuSans-43"/>
      <use xlink:href="#DejaVuSans-6c" x="69.824219"/>
      <use xlink:href="#DejaVuSans-75" x="97.607422"/>
      <use xlink:href="#DejaVuSans-73" x="160.986328"/>
      <use xlink:href="#DejaVuSans-74" x="213.085938"/>
      <use xlink:href="#DejaVuSans-65" x="252.294922"/>
      <use xlink:href="#DejaVuSans-72" x="313.818359"/>
      <use xlink:href="#DejaVuSans-65" x="352.681641"/>
      <use xlink:href="#DejaVuSans-64" x="414.205078"/>
     </g>
    </g>
    <g id="line2d_30">
     <path d="M 154.9125 215.258437 
L 164.9125 215.258437 
L 174.9125 215.258437 
" style="fill: none; stroke: #c6651a; stroke-width: 2.2; stroke-linecap: square"/>
    </g>
    <g id="text_10">
     <!-- Random -->
     <g transform="translate(182.9125 218.758437) scale(0.1 -0.1)">
      <defs>
       <path id="DejaVuSans-52" d="M 2841 2188 
Q 3044 2119 3236 1894 
Q 3428 1669 3622 1275 
L 4263 0 
L 3584 0 
L 2988 1197 
Q 2756 1666 2539 1819 
Q 2322 1972 1947 1972 
L 1259 1972 
L 1259 0 
L 628 0 
L 628 4666 
L 2053 4666 
Q 2853 4666 3247 4331 
Q 3641 3997 3641 3322 
Q 3641 2881 3436 2590 
Q 3231 2300 2841 2188 
z
M 1259 4147 
L 1259 2491 
L 2053 2491 
Q 2509 2491 2742 2702 
Q 2975 2913 2975 3322 
Q 2975 3731 2742 3939 
Q 2509 4147 2053 4147 
L 1259 4147 
z
" transform="scale(0.015625)"/>
      </defs>
      <use xlink:href="#DejaVuSans-52"/>
      <use xlink:href="#DejaVuSans-61" x="67.232422"/>
      <use xlink:href="#DejaVuSans-6e" x="128.511719"/>
      <use xlink:href="#DejaVuSans-64" x="191.890625"/>
      <use xlink:href="#DejaVuSans-6f" x="255.367188"/>
      <use xlink:href="#DejaVuSans-6d" x="316.548828"/>
     </g>
    </g>
   </g>
  </g>
  <g id="axes_2">
   <g id="patch_9">
    <path d="M 50.14375 451.658125 
L 633.32375 451.658125 
L 633.32375 244.138125 
L 50.14375 244.138125 
z
" style="fill: #ffffff"/>
   </g>
   <g id="PolyCollection_3">
    <defs>
     <path id="m4173696bc3" d="M 76.651932 -356.66213 
L 76.651932 -335.321408 
L 103.160114 -340.070096 
L 129.668295 -344.50061 
L 156.176477 -347.942152 
L 182.684659 -350.619267 
L 209.192841 -352.136367 
L 235.701023 -354.93224 
L 262.209205 -356.739546 
L 288.717386 -357.535992 
L 315.225568 -358.341356 
L 341.73375 -359.00567 
L 368.241932 -361.168033 
L 394.750114 -362.411544 
L 421.258295 -363.177187 
L 447.766477 -363.920537 
L 474.274659 -365.917126 
L 500.782841 -366.696955 
L 527.291023 -368.263503 
L 553.799205 -369.849506 
L 580.307386 -373.130949 
L 606.815568 -375.747672 
L 606.815568 -457.463523 
L 606.815568 -457.463523 
L 580.307386 -453.945376 
L 553.799205 -451.58076 
L 527.291023 -446.688185 
L 500.782841 -442.717299 
L 474.274659 -439.098634 
L 447.766477 -434.807954 
L 421.258295 -430.26922 
L 394.750114 -426.36886 
L 368.241932 -423.275485 
L 341.73375 -417.79439 
L 315.225568 -415.314259 
L 288.717386 -411.386337 
L 262.209205 -405.380763 
L 235.701023 -398.22409 
L 209.192841 -391.818469 
L 182.684659 -384.439683 
L 156.176477 -376.51453 
L 129.668295 -368.882827 
L 103.160114 -361.162764 
L 76.651932 -356.66213 
z
" style="stroke: #1f4e79; stroke-opacity: 0.14"/>
    </defs>
    <g clip-path="url(#pb999aa0c49)">
     <use xlink:href="#m4173696bc3" x="0" y="711.034375" style="fill: #1f4e79; fill-opacity: 0.14; stroke: #1f4e79; stroke-opacity: 0.14"/>
    </g>
   </g>
   <g id="patch_10">
    <path d="M 262.209205 451.658125 
L 606.815568 451.658125 
L 606.815568 244.138125 
L 262.209205 244.138125 
z
" clip-path="url(#pb999aa0c49)" style="fill: #1f4e79; opacity: 0.06; stroke: #1f4e79; stroke-linejoin: miter"/>
   </g>
   <g id="PolyCollection_4">
    <defs>
     <path id="m4211f1722b" d="M 76.651932 -283.168529 
L 76.651932 -268.808977 
L 103.160114 -276.914496 
L 129.668295 -284.361375 
L 156.176477 -291.357542 
L 182.684659 -298.755378 
L 209.192841 -306.112683 
L 235.701023 -312.510198 
L 262.209205 -318.346755 
L 288.717386 -323.831092 
L 315.225568 -329.743443 
L 341.73375 -335.04863 
L 368.241932 -340.457173 
L 394.750114 -346.4668 
L 421.258295 -351.727808 
L 447.766477 -357.384809 
L 474.274659 -362.867931 
L 500.782841 -368.286201 
L 527.291023 -373.178371 
L 553.799205 -376.970106 
L 580.307386 -381.17567 
L 606.815568 -385.292064 
L 606.815568 -396.389628 
L 606.815568 -396.389628 
L 580.307386 -393.159256 
L 553.799205 -389.692179 
L 527.291023 -386.672166 
L 500.782841 -383.442605 
L 474.274659 -379.421865 
L 447.766477 -375.319252 
L 421.258295 -370.354531 
L 394.750114 -365.001111 
L 368.241932 -359.248455 
L 341.73375 -352.824189 
L 315.225568 -346.363039 
L 288.717386 -339.81353 
L 262.209205 -333.514507 
L 235.701023 -326.562519 
L 209.192841 -319.82616 
L 182.684659 -313.446479 
L 156.176477 -306.856844 
L 129.668295 -299.96768 
L 103.160114 -291.916879 
L 76.651932 -283.168529 
z
" style="stroke: #c6651a; stroke-opacity: 0.14"/>
    </defs>
    <g clip-path="url(#pb999aa0c49)">
     <use xlink:href="#m4211f1722b" x="0" y="711.034375" style="fill: #c6651a; fill-opacity: 0.14; stroke: #c6651a; stroke-opacity: 0.14"/>
    </g>
   </g>
   <g id="patch_11">
    <path d="M 288.717386 451.658125 
L 421.258295 451.658125 
L 421.258295 244.138125 
L 288.717386 244.138125 
z
" clip-path="url(#pb999aa0c49)" style="fill: #c6651a; opacity: 0.06; stroke: #c6651a; stroke-linejoin: miter"/>
   </g>
   <g id="matplotlib.axis_3">
    <g id="xtick_7">
     <g id="line2d_31">
      <path d="M 76.651932 451.658125 
L 76.651932 244.138125 
" clip-path="url(#pb999aa0c49)" style="fill: none; stroke: #b0b0b0; stroke-opacity: 0.25; stroke-width: 0.8; stroke-linecap: square"/>
     </g>
     <g id="line2d_32">
      <g>
       <use xlink:href="#m33b9faa08e" x="76.651932" y="451.658125" style="stroke: #000000; stroke-width: 0.8"/>
      </g>
     </g>
    </g>
    <g id="xtick_8">
     <g id="line2d_33">
      <path d="M 182.684659 451.658125 
L 182.684659 244.138125 
" clip-path="url(#pb999aa0c49)" style="fill: none; stroke: #b0b0b0; stroke-opacity: 0.25; stroke-width: 0.8; stroke-linecap: square"/>
     </g>
     <g id="line2d_34">
      <g>
       <use xlink:href="#m33b9faa08e" x="182.684659" y="451.658125" style="stroke: #000000; stroke-width: 0.8"/>
      </g>
     </g>
    </g>
    <g id="xtick_9">
     <g id="line2d_35">
      <path d="M 288.717386 451.658125 
L 288.717386 244.138125 
" clip-path="url(#pb999aa0c49)" style="fill: none; stroke: #b0b0b0; stroke-opacity: 0.25; stroke-width: 0.8; stroke-linecap: square"/>
     </g>
     <g id="line2d_36">
      <g>
       <use xlink:href="#m33b9faa08e" x="288.717386" y="451.658125" style="stroke: #000000; stroke-width: 0.8"/>
      </g>
     </g>
    </g>
    <g id="xtick_10">
     <g id="line2d_37">
      <path d="M 394.750114 451.658125 
L 394.750114 244.138125 
" clip-path="url(#pb999aa0c49)" style="fill: none; stroke: #b0b0b0; stroke-opacity: 0.25; stroke-width: 0.8; stroke-linecap: square"/>
     </g>
     <g id="line2d_38">
      <g>
       <use xlink:href="#m33b9faa08e" x="394.750114" y="451.658125" style="stroke: #000000; stroke-width: 0.8"/>
      </g>
     </g>
    </g>
    <g id="xtick_11">
     <g id="line2d_39">
      <path d="M 500.782841 451.658125 
L 500.782841 244.138125 
" clip-path="url(#pb999aa0c49)" style="fill: none; stroke: #b0b0b0; stroke-opacity: 0.25; stroke-width: 0.8; stroke-linecap: square"/>
     </g>
     <g id="line2d_40">
      <g>
       <use xlink:href="#m33b9faa08e" x="500.782841" y="451.658125" style="stroke: #000000; stroke-width: 0.8"/>
      </g>
     </g>
    </g>
    <g id="xtick_12">
     <g id="line2d_41">
      <path d="M 606.815568 451.658125 
L 606.815568 244.138125 
" clip-path="url(#pb999aa0c49)" style="fill: none; stroke: #b0b0b0; stroke-opacity: 0.25; stroke-width: 0.8; stroke-linecap: square"/>
     </g>
     <g id="line2d_42">
      <g>
       <use xlink:href="#m33b9faa08e" x="606.815568" y="451.658125" style="stroke: #000000; stroke-width: 0.8"/>
      </g>
     </g>
    </g>
   </g>
   <g id="matplotlib.axis_4">
    <g id="ytick_7">
     <g id="line2d_43">
      <path d="M 50.14375 412.709443 
L 633.32375 412.709443 
" clip-path="url(#pb999aa0c49)" style="fill: none; stroke: #b0b0b0; stroke-opacity: 0.25; stroke-width: 0.8; stroke-linecap: square"/>
     </g>
     <g id="line2d_44">
      <g>
       <use xlink:href="#m203680029d" x="50.14375" y="412.709443" style="stroke: #000000; stroke-width: 0.8"/>
      </g>
     </g>
     <g id="text_11">
      <!-- 0.3 -->
      <g transform="translate(27.240625 416.508661) scale(0.1 -0.1)">
       <use xlink:href="#DejaVuSans-30"/>
       <use xlink:href="#DejaVuSans-2e" x="63.623047"/>
       <use xlink:href="#DejaVuSans-33" x="95.410156"/>
      </g>
     </g>
    </g>
    <g id="ytick_8">
     <g id="line2d_45">
      <path d="M 50.14375 372.177797 
L 633.32375 372.177797 
" clip-path="url(#pb999aa0c49)" style="fill: none; stroke: #b0b0b0; stroke-opacity: 0.25; stroke-width: 0.8; stroke-linecap: square"/>
     </g>
     <g id="line2d_46">
      <g>
       <use xlink:href="#m203680029d" x="50.14375" y="372.177797" style="stroke: #000000; stroke-width: 0.8"/>
      </g>
     </g>
     <g id="text_12">
      <!-- 0.4 -->
      <g transform="translate(27.240625 375.977016) scale(0.1 -0.1)">
       <use xlink:href="#DejaVuSans-30"/>
       <use xlink:href="#DejaVuSans-2e" x="63.623047"/>
       <use xlink:href="#DejaVuSans-34" x="95.410156"/>
      </g>
     </g>
    </g>
    <g id="ytick_9">
     <g id="line2d_47">
      <path d="M 50.14375 331.646151 
L 633.32375 331.646151 
" clip-path="url(#pb999aa0c49)" style="fill: none; stroke: #b0b0b0; stroke-opacity: 0.25; stroke-width: 0.8; stroke-linecap: square"/>
     </g>
     <g id="line2d_48">
      <g>
       <use xlink:href="#m203680029d" x="50.14375" y="331.646151" style="stroke: #000000; stroke-width: 0.8"/>
      </g>
     </g>
     <g id="text_13">
      <!-- 0.5 -->
      <g transform="translate(27.240625 335.44537) scale(0.1 -0.1)">
       <use xlink:href="#DejaVuSans-30"/>
       <use xlink:href="#DejaVuSans-2e" x="63.623047"/>
       <use xlink:href="#DejaVuSans-35" x="95.410156"/>
      </g>
     </g>
    </g>
    <g id="ytick_10">
     <g id="line2d_49">
      <path d="M 50.14375 291.114505 
L 633.32375 291.114505 
" clip-path="url(#pb999aa0c49)" style="fill: none; stroke: #b0b0b0; stroke-opacity: 0.25; stroke-width: 0.8; stroke-linecap: square"/>
     </g>
     <g id="line2d_50">
      <g>
       <use xlink:href="#m203680029d" x="50.14375" y="291.114505" style="stroke: #000000; stroke-width: 0.8"/>
      </g>
     </g>
     <g id="text_14">
      <!-- 0.6 -->
      <g transform="translate(27.240625 294.913724) scale(0.1 -0.1)">
       <use xlink:href="#DejaVuSans-30"/>
       <use xlink:href="#DejaVuSans-2e" x="63.623047"/>
       <use xlink:href="#DejaVuSans-36" x="95.410156"/>
      </g>
     </g>
    </g>
    <g id="ytick_11">
     <g id="line2d_51">
      <path d="M 50.14375 250.582859 
L 633.32375 250.582859 
" clip-path="url(#pb999aa0c49)" style="fill: none; stroke: #b0b0b0; stroke-opacity: 0.25; stroke-width: 0.8; stroke-linecap: square"/>
     </g>
     <g id="line2d_52">
      <g>
       <use xlink:href="#m203680029d" x="50.14375" y="250.582859" style="stroke: #000000; stroke-width: 0.8"/>
      </g>
     </g>
     <g id="text_15">
      <!-- 0.7 -->
      <g transform="translate(27.240625 254.382078) scale(0.1 -0.1)">
       <defs>
        <path id="DejaVuSans-37" d="M 525 4666 
L 3525 4666 
L 3525 4397 
L 1831 0 
L 1172 0 
L 2766 4134 
L 525 4134 
L 525 4666 
z
" transform="scale(0.015625)"/>
       </defs>
       <use xlink:href="#DejaVuSans-30"/>
       <use xlink:href="#DejaVuSans-2e" x="63.623047"/>
       <use xlink:href="#DejaVuSans-37" x="95.410156"/>
      </g>
     </g>
    </g>
    <g id="text_16">
     <!-- Neighborhood persistence -->
     <g transform="translate(21.160937 413.635625) rotate(-90) scale(0.1 -0.1)">
      <defs>
       <path id="DejaVuSans-4e" d="M 628 4666 
L 1478 4666 
L 3547 763 
L 3547 4666 
L 4159 4666 
L 4159 0 
L 3309 0 
L 1241 3903 
L 1241 0 
L 628 0 
L 628 4666 
z
" transform="scale(0.015625)"/>
       <path id="DejaVuSans-67" d="M 2906 1791 
Q 2906 2416 2648 2759 
Q 2391 3103 1925 3103 
Q 1463 3103 1205 2759 
Q 947 2416 947 1791 
Q 947 1169 1205 825 
Q 1463 481 1925 481 
Q 2391 481 2648 825 
Q 2906 1169 2906 1791 
z
M 3481 434 
Q 3481 -459 3084 -895 
Q 2688 -1331 1869 -1331 
Q 1566 -1331 1297 -1286 
Q 1028 -1241 775 -1147 
L 775 -588 
Q 1028 -725 1275 -790 
Q 1522 -856 1778 -856 
Q 2344 -856 2625 -561 
Q 2906 -266 2906 331 
L 2906 616 
Q 2728 306 2450 153 
Q 2172 0 1784 0 
Q 1141 0 747 490 
Q 353 981 353 1791 
Q 353 2603 747 3093 
Q 1141 3584 1784 3584 
Q 2172 3584 2450 3431 
Q 2728 3278 2906 2969 
L 2906 3500 
L 3481 3500 
L 3481 434 
z
" transform="scale(0.015625)"/>
       <path id="DejaVuSans-68" d="M 3513 2113 
L 3513 0 
L 2938 0 
L 2938 2094 
Q 2938 2591 2744 2837 
Q 2550 3084 2163 3084 
Q 1697 3084 1428 2787 
Q 1159 2491 1159 1978 
L 1159 0 
L 581 0 
L 581 4863 
L 1159 4863 
L 1159 2956 
Q 1366 3272 1645 3428 
Q 1925 3584 2291 3584 
Q 2894 3584 3203 3211 
Q 3513 2838 3513 2113 
z
" transform="scale(0.015625)"/>
       <path id="DejaVuSans-62" d="M 3116 1747 
Q 3116 2381 2855 2742 
Q 2594 3103 2138 3103 
Q 1681 3103 1420 2742 
Q 1159 2381 1159 1747 
Q 1159 1113 1420 752 
Q 1681 391 2138 391 
Q 2594 391 2855 752 
Q 3116 1113 3116 1747 
z
M 1159 2969 
Q 1341 3281 1617 3432 
Q 1894 3584 2278 3584 
Q 2916 3584 3314 3078 
Q 3713 2572 3713 1747 
Q 3713 922 3314 415 
Q 2916 -91 2278 -91 
Q 1894 -91 1617 61 
Q 1341 213 1159 525 
L 1159 0 
L 581 0 
L 581 4863 
L 1159 4863 
L 1159 2969 
z
" transform="scale(0.015625)"/>
       <path id="DejaVuSans-70" d="M 1159 525 
L 1159 -1331 
L 581 -1331 
L 581 3500 
L 1159 3500 
L 1159 2969 
Q 1341 3281 1617 3432 
Q 1894 3584 2278 3584 
Q 2916 3584 3314 3078 
Q 3713 2572 3713 1747 
Q 3713 922 3314 415 
Q 2916 -91 2278 -91 
Q 1894 -91 1617 61 
Q 1341 213 1159 525 
z
M 3116 1747 
Q 3116 2381 2855 2742 
Q 2594 3103 2138 3103 
Q 1681 3103 1420 2742 
Q 1159 2381 1159 1747 
Q 1159 1113 1420 752 
Q 1681 391 2138 391 
Q 2594 391 2855 752 
Q 3116 1113 3116 1747 
z
" transform="scale(0.015625)"/>
      </defs>
      <use xlink:href="#DejaVuSans-4e"/>
      <use xlink:href="#DejaVuSans-65" x="74.804688"/>
      <use xlink:href="#DejaVuSans-69" x="136.328125"/>
      <use xlink:href="#DejaVuSans-67" x="164.111328"/>
      <use xlink:href="#DejaVuSans-68" x="227.587891"/>
      <use xlink:href="#DejaVuSans-62" x="290.966797"/>
      <use xlink:href="#DejaVuSans-6f" x="354.443359"/>
      <use xlink:href="#DejaVuSans-72" x="415.625"/>
      <use xlink:href="#DejaVuSans-68" x="454.988281"/>
      <use xlink:href="#DejaVuSans-6f" x="518.367188"/>
      <use xlink:href="#DejaVuSans-6f" x="579.548828"/>
      <use xlink:href="#DejaVuSans-64" x="640.730469"/>
      <use xlink:href="#DejaVuSans-20" x="704.207031"/>
      <use xlink:href="#DejaVuSans-70" x="735.994141"/>
      <use xlink:href="#DejaVuSans-65" x="799.470703"/>
      <use xlink:href="#DejaVuSans-72" x="860.994141"/>
      <use xlink:href="#DejaVuSans-73" x="902.107422"/>
      <use xlink:href="#DejaVuSans-69" x="954.207031"/>
      <use xlink:href="#DejaVuSans-73" x="981.990234"/>
      <use xlink:href="#DejaVuSans-74" x="1034.089844"/>
      <use xlink:href="#DejaVuSans-65" x="1073.298828"/>
      <use xlink:href="#DejaVuSans-6e" x="1134.822266"/>
      <use xlink:href="#DejaVuSans-63" x="1198.201172"/>
      <use xlink:href="#DejaVuSans-65" x="1253.181641"/>
     </g>
    </g>
   </g>
   <g id="line2d_53">
    <path d="M 76.651932 365.042606 
L 103.160114 360.417945 
L 129.668295 354.342657 
L 156.176477 348.806034 
L 182.684659 343.5049 
L 209.192841 339.056957 
L 235.701023 334.45621 
L 262.209205 329.974221 
L 288.717386 326.57321 
L 315.225568 324.206567 
L 341.73375 322.634345 
L 368.241932 318.812616 
L 394.750114 316.644173 
L 421.258295 314.311171 
L 447.766477 311.670129 
L 474.274659 308.526495 
L 500.782841 306.327248 
L 527.291023 303.558531 
L 553.799205 300.319242 
L 580.307386 297.496213 
L 606.815568 294.428778 
" clip-path="url(#pb999aa0c49)" style="fill: none; stroke: #1f4e79; stroke-width: 2.2; stroke-linecap: square"/>
   </g>
   <g id="line2d_54">
    <path d="M 427.885341 451.658125 
L 427.885341 244.138125 
" clip-path="url(#pb999aa0c49)" style="fill: none; stroke-dasharray: 4.44,1.92; stroke-dashoffset: 0; stroke: #1f4e79; stroke-width: 1.2"/>
   </g>
   <g id="line2d_55">
    <path d="M 76.651932 435.045622 
L 103.160114 426.618688 
L 129.668295 418.869847 
L 156.176477 411.927182 
L 182.684659 404.933446 
L 209.192841 398.064954 
L 235.701023 391.498016 
L 262.209205 385.103744 
L 288.717386 379.212064 
L 315.225568 372.981134 
L 341.73375 367.097966 
L 368.241932 361.181561 
L 394.750114 355.300419 
L 421.258295 349.993206 
L 447.766477 344.682344 
L 474.274659 339.889477 
L 500.782841 335.169972 
L 527.291023 331.109107 
L 553.799205 327.703232 
L 580.307386 323.866912 
L 606.815568 320.193529 
" clip-path="url(#pb999aa0c49)" style="fill: none; stroke: #c6651a; stroke-width: 2.2; stroke-linecap: square"/>
   </g>
   <g id="line2d_56">
    <path d="M 331.130477 451.658125 
L 331.130477 244.138125 
" clip-path="url(#pb999aa0c49)" style="fill: none; stroke-dasharray: 4.44,1.92; stroke-dashoffset: 0; stroke: #c6651a; stroke-width: 1.2"/>
   </g>
   <g id="patch_12">
    <path d="M 50.14375 451.658125 
L 50.14375 244.138125 
" style="fill: none; stroke: #000000; stroke-width: 0.8; stroke-linejoin: miter; stroke-linecap: square"/>
   </g>
   <g id="patch_13">
    <path d="M 633.32375 451.658125 
L 633.32375 244.138125 
" style="fill: none; stroke: #000000; stroke-width: 0.8; stroke-linejoin: miter; stroke-linecap: square"/>
   </g>
   <g id="patch_14">
    <path d="M 50.14375 451.658125 
L 633.32375 451.658125 
" style="fill: none; stroke: #000000; stroke-width: 0.8; stroke-linejoin: miter; stroke-linecap: square"/>
   </g>
   <g id="patch_15">
    <path d="M 50.14375 244.138125 
L 633.32375 244.138125 
" style="fill: none; stroke: #000000; stroke-width: 0.8; stroke-linejoin: miter; stroke-linecap: square"/>
   </g>
  </g>
  <g id="axes_3">
   <g id="patch_16">
    <path d="M 50.14375 673.478125 
L 633.32375 673.478125 
L 633.32375 465.958125 
L 50.14375 465.958125 
z
" style="fill: #ffffff"/>
   </g>
   <g id="PolyCollection_5">
    <defs>
     <path id="m88aa5f0722" d="M 76.651932 -174.867439 
L 76.651932 -110.040075 
L 103.160114 -116.252982 
L 129.668295 -122.096998 
L 156.176477 -126.49993 
L 182.684659 -129.867441 
L 209.192841 -131.667456 
L 235.701023 -134.172691 
L 262.209205 -135.293918 
L 288.717386 -119.460755 
L 315.225568 -119.931157 
L 341.73375 -120.425309 
L 368.241932 -121.414379 
L 394.750114 -121.891293 
L 421.258295 -122.267844 
L 447.766477 -122.840141 
L 474.274659 -124.060964 
L 500.782841 -125.174913 
L 527.291023 -129.098632 
L 553.799205 -133.442189 
L 580.307386 -136.96101 
L 606.815568 -142.343818 
L 606.815568 -235.643523 
L 606.815568 -235.643523 
L 580.307386 -232.938328 
L 553.799205 -230.946398 
L 527.291023 -228.587877 
L 500.782841 -226.165 
L 474.274659 -224.386053 
L 447.766477 -221.64217 
L 421.258295 -219.510039 
L 394.750114 -217.886999 
L 368.241932 -214.45973 
L 341.73375 -211.101029 
L 315.225568 -207.671845 
L 288.717386 -203.775323 
L 262.209205 -217.083331 
L 235.701023 -211.481794 
L 209.192841 -206.391647 
L 182.684659 -199.615637 
L 156.176477 -192.481846 
L 129.668295 -186.535169 
L 103.160114 -179.970227 
L 76.651932 -174.867439 
z
" style="stroke: #1f4e79; stroke-opacity: 0.14"/>
    </defs>
    <g clip-path="url(#pd81c14e269)">
     <use xlink:href="#m88aa5f0722" x="0" y="711.034375" style="fill: #1f4e79; fill-opacity: 0.14; stroke: #1f4e79; stroke-opacity: 0.14"/>
    </g>
   </g>
   <g id="patch_17">
    <path d="M 262.209205 673.478125 
L 606.815568 673.478125 
L 606.815568 465.958125 
L 262.209205 465.958125 
z
" clip-path="url(#pd81c14e269)" style="fill: #1f4e79; opacity: 0.06; stroke: #1f4e79; stroke-linejoin: miter"/>
   </g>
   <g id="PolyCollection_6">
    <defs>
     <path id="m0dcaca926a" d="M 76.651932 -77.604942 
L 76.651932 -46.988977 
L 103.160114 -57.517477 
L 129.668295 -66.38463 
L 156.176477 -76.71317 
L 182.684659 -85.220244 
L 209.192841 -93.127823 
L 235.701023 -100.132905 
L 262.209205 -107.309982 
L 288.717386 -115.19994 
L 315.225568 -123.359958 
L 341.73375 -132.393744 
L 368.241932 -140.913076 
L 394.750114 -149.863737 
L 421.258295 -158.230992 
L 447.766477 -166.257321 
L 474.274659 -173.605245 
L 500.782841 -180.245267 
L 527.291023 -186.055956 
L 553.799205 -191.093624 
L 580.307386 -195.320347 
L 606.815568 -199.620617 
L 606.815568 -208.588133 
L 606.815568 -208.588133 
L 580.307386 -205.56806 
L 553.799205 -201.815571 
L 527.291023 -198.14544 
L 500.782841 -194.119059 
L 474.274659 -190.151288 
L 447.766477 -185.44114 
L 421.258295 -180.168271 
L 394.750114 -175.070079 
L 368.241932 -169.712554 
L 341.73375 -163.1637 
L 315.225568 -156.557771 
L 288.717386 -149.34775 
L 262.209205 -142.25533 
L 235.701023 -134.920431 
L 209.192841 -126.371603 
L 182.684659 -117.793663 
L 156.176477 -107.830182 
L 129.668295 -98.666921 
L 103.160114 -89.215213 
L 76.651932 -77.604942 
z
" style="stroke: #c6651a; stroke-opacity: 0.14"/>
    </defs>
    <g clip-path="url(#pd81c14e269)">
     <use xlink:href="#m0dcaca926a" x="0" y="711.034375" style="fill: #c6651a; fill-opacity: 0.14; stroke: #c6651a; stroke-opacity: 0.14"/>
    </g>
   </g>
   <g id="patch_18">
    <path d="M 288.717386 673.478125 
L 421.258295 673.478125 
L 421.258295 465.958125 
L 288.717386 465.958125 
z
" clip-path="url(#pd81c14e269)" style="fill: #c6651a; opacity: 0.06; stroke: #c6651a; stroke-linejoin: miter"/>
   </g>
   <g id="matplotlib.axis_5">
    <g id="xtick_13">
     <g id="line2d_57">
      <path d="M 76.651932 673.478125 
L 76.651932 465.958125 
" clip-path="url(#pd81c14e269)" style="fill: none; stroke: #b0b0b0; stroke-opacity: 0.25; stroke-width: 0.8; stroke-linecap: square"/>
     </g>
     <g id="line2d_58">
      <g>
       <use xlink:href="#m33b9faa08e" x="76.651932" y="673.478125" style="stroke: #000000; stroke-width: 0.8"/>
      </g>
     </g>
     <g id="text_17">
      <!-- 0.08 -->
      <g transform="translate(65.519119 688.076562) scale(0.1 -0.1)">
       <defs>
        <path id="DejaVuSans-38" d="M 2034 2216 
Q 1584 2216 1326 1975 
Q 1069 1734 1069 1313 
Q 1069 891 1326 650 
Q 1584 409 2034 409 
Q 2484 409 2743 651 
Q 3003 894 3003 1313 
Q 3003 1734 2745 1975 
Q 2488 2216 2034 2216 
z
M 1403 2484 
Q 997 2584 770 2862 
Q 544 3141 544 3541 
Q 544 4100 942 4425 
Q 1341 4750 2034 4750 
Q 2731 4750 3128 4425 
Q 3525 4100 3525 3541 
Q 3525 3141 3298 2862 
Q 3072 2584 2669 2484 
Q 3125 2378 3379 2068 
Q 3634 1759 3634 1313 
Q 3634 634 3220 271 
Q 2806 -91 2034 -91 
Q 1263 -91 848 271 
Q 434 634 434 1313 
Q 434 1759 690 2068 
Q 947 2378 1403 2484 
z
M 1172 3481 
Q 1172 3119 1398 2916 
Q 1625 2713 2034 2713 
Q 2441 2713 2670 2916 
Q 2900 3119 2900 3481 
Q 2900 3844 2670 4047 
Q 2441 4250 2034 4250 
Q 1625 4250 1398 4047 
Q 1172 3844 1172 3481 
z
" transform="scale(0.015625)"/>
       </defs>
       <use xlink:href="#DejaVuSans-30"/>
       <use xlink:href="#DejaVuSans-2e" x="63.623047"/>
       <use xlink:href="#DejaVuSans-30" x="95.410156"/>
       <use xlink:href="#DejaVuSans-38" x="159.033203"/>
      </g>
     </g>
    </g>
    <g id="xtick_14">
     <g id="line2d_59">
      <path d="M 182.684659 673.478125 
L 182.684659 465.958125 
" clip-path="url(#pd81c14e269)" style="fill: none; stroke: #b0b0b0; stroke-opacity: 0.25; stroke-width: 0.8; stroke-linecap: square"/>
     </g>
     <g id="line2d_60">
      <g>
       <use xlink:href="#m33b9faa08e" x="182.684659" y="673.478125" style="stroke: #000000; stroke-width: 0.8"/>
      </g>
     </g>
     <g id="text_18">
      <!-- 0.10 -->
      <g transform="translate(171.551847 688.076562) scale(0.1 -0.1)">
       <defs>
        <path id="DejaVuSans-31" d="M 794 531 
L 1825 531 
L 1825 4091 
L 703 3866 
L 703 4441 
L 1819 4666 
L 2450 4666 
L 2450 531 
L 3481 531 
L 3481 0 
L 794 0 
L 794 531 
z
" transform="scale(0.015625)"/>
       </defs>
       <use xlink:href="#DejaVuSans-30"/>
       <use xlink:href="#DejaVuSans-2e" x="63.623047"/>
       <use xlink:href="#DejaVuSans-31" x="95.410156"/>
       <use xlink:href="#DejaVuSans-30" x="159.033203"/>
      </g>
     </g>
    </g>
    <g id="xtick_15">
     <g id="line2d_61">
      <path d="M 288.717386 673.478125 
L 288.717386 465.958125 
" clip-path="url(#pd81c14e269)" style="fill: none; stroke: #b0b0b0; stroke-opacity: 0.25; stroke-width: 0.8; stroke-linecap: square"/>
     </g>
     <g id="line2d_62">
      <g>
       <use xlink:href="#m33b9faa08e" x="288.717386" y="673.478125" style="stroke: #000000; stroke-width: 0.8"/>
      </g>
     </g>
     <g id="text_19">
      <!-- 0.12 -->
      <g transform="translate(277.584574 688.076562) scale(0.1 -0.1)">
       <defs>
        <path id="DejaVuSans-32" d="M 1228 531 
L 3431 531 
L 3431 0 
L 469 0 
L 469 531 
Q 828 903 1448 1529 
Q 2069 2156 2228 2338 
Q 2531 2678 2651 2914 
Q 2772 3150 2772 3378 
Q 2772 3750 2511 3984 
Q 2250 4219 1831 4219 
Q 1534 4219 1204 4116 
Q 875 4013 500 3803 
L 500 4441 
Q 881 4594 1212 4672 
Q 1544 4750 1819 4750 
Q 2544 4750 2975 4387 
Q 3406 4025 3406 3419 
Q 3406 3131 3298 2873 
Q 3191 2616 2906 2266 
Q 2828 2175 2409 1742 
Q 1991 1309 1228 531 
z
" transform="scale(0.015625)"/>
       </defs>
       <use xlink:href="#DejaVuSans-30"/>
       <use xlink:href="#DejaVuSans-2e" x="63.623047"/>
       <use xlink:href="#DejaVuSans-31" x="95.410156"/>
       <use xlink:href="#DejaVuSans-32" x="159.033203"/>
      </g>
     </g>
    </g>
    <g id="xtick_16">
     <g id="line2d_63">
      <path d="M 394.750114 673.478125 
L 394.750114 465.958125 
" clip-path="url(#pd81c14e269)" style="fill: none; stroke: #b0b0b0; stroke-opacity: 0.25; stroke-width: 0.8; stroke-linecap: square"/>
     </g>
     <g id="line2d_64">
      <g>
       <use xlink:href="#m33b9faa08e" x="394.750114" y="673.478125" style="stroke: #000000; stroke-width: 0.8"/>
      </g>
     </g>
     <g id="text_20">
      <!-- 0.14 -->
      <g transform="translate(383.617301 688.076562) scale(0.1 -0.1)">
       <use xlink:href="#DejaVuSans-30"/>
       <use xlink:href="#DejaVuSans-2e" x="63.623047"/>
       <use xlink:href="#DejaVuSans-31" x="95.410156"/>
       <use xlink:href="#DejaVuSans-34" x="159.033203"/>
      </g>
     </g>
    </g>
    <g id="xtick_17">
     <g id="line2d_65">
      <path d="M 500.782841 673.478125 
L 500.782841 465.958125 
" clip-path="url(#pd81c14e269)" style="fill: none; stroke: #b0b0b0; stroke-opacity: 0.25; stroke-width: 0.8; stroke-linecap: square"/>
     </g>
     <g id="line2d_66">
      <g>
       <use xlink:href="#m33b9faa08e" x="500.782841" y="673.478125" style="stroke: #000000; stroke-width: 0.8"/>
      </g>
     </g>
     <g id="text_21">
      <!-- 0.16 -->
      <g transform="translate(489.650028 688.076562) scale(0.1 -0.1)">
       <use xlink:href="#DejaVuSans-30"/>
       <use xlink:href="#DejaVuSans-2e" x="63.623047"/>
       <use xlink:href="#DejaVuSans-31" x="95.410156"/>
       <use xlink:href="#DejaVuSans-36" x="159.033203"/>
      </g>
     </g>
    </g>
    <g id="xtick_18">
     <g id="line2d_67">
      <path d="M 606.815568 673.478125 
L 606.815568 465.958125 
" clip-path="url(#pd81c14e269)" style="fill: none; stroke: #b0b0b0; stroke-opacity: 0.25; stroke-width: 0.8; stroke-linecap: square"/>
     </g>
     <g id="line2d_68">
      <g>
       <use xlink:href="#m33b9faa08e" x="606.815568" y="673.478125" style="stroke: #000000; stroke-width: 0.8"/>
      </g>
     </g>
     <g id="text_22">
      <!-- 0.18 -->
      <g transform="translate(595.682756 688.076562) scale(0.1 -0.1)">
       <use xlink:href="#DejaVuSans-30"/>
       <use xlink:href="#DejaVuSans-2e" x="63.623047"/>
       <use xlink:href="#DejaVuSans-31" x="95.410156"/>
       <use xlink:href="#DejaVuSans-38" x="159.033203"/>
      </g>
     </g>
    </g>
    <g id="text_23">
     <!-- Kernel width -->
     <g transform="translate(310.655625 701.754687) scale(0.1 -0.1)">
      <defs>
       <path id="DejaVuSans-4b" d="M 628 4666 
L 1259 4666 
L 1259 2694 
L 3353 4666 
L 4166 4666 
L 1850 2491 
L 4331 0 
L 3500 0 
L 1259 2247 
L 1259 0 
L 628 0 
L 628 4666 
z
" transform="scale(0.015625)"/>
       <path id="DejaVuSans-77" d="M 269 3500 
L 844 3500 
L 1563 769 
L 2278 3500 
L 2956 3500 
L 3675 769 
L 4391 3500 
L 4966 3500 
L 4050 0 
L 3372 0 
L 2619 2869 
L 1863 0 
L 1184 0 
L 269 3500 
z
" transform="scale(0.015625)"/>
      </defs>
      <use xlink:href="#DejaVuSans-4b"/>
      <use xlink:href="#DejaVuSans-65" x="60.576172"/>
      <use xlink:href="#DejaVuSans-72" x="122.099609"/>
      <use xlink:href="#DejaVuSans-6e" x="161.462891"/>
      <use xlink:href="#DejaVuSans-65" x="224.841797"/>
      <use xlink:href="#DejaVuSans-6c" x="286.365234"/>
      <use xlink:href="#DejaVuSans-20" x="314.148438"/>
      <use xlink:href="#DejaVuSans-77" x="345.935547"/>
      <use xlink:href="#DejaVuSans-69" x="427.722656"/>
      <use xlink:href="#DejaVuSans-64" x="455.505859"/>
      <use xlink:href="#DejaVuSans-74" x="518.982422"/>
      <use xlink:href="#DejaVuSans-68" x="558.191406"/>
     </g>
    </g>
   </g>
   <g id="matplotlib.axis_6">
    <g id="ytick_12">
     <g id="line2d_69">
      <path d="M 50.14375 645.883592 
L 633.32375 645.883592 
" clip-path="url(#pd81c14e269)" style="fill: none; stroke: #b0b0b0; stroke-opacity: 0.25; stroke-width: 0.8; stroke-linecap: square"/>
     </g>
     <g id="line2d_70">
      <g>
       <use xlink:href="#m203680029d" x="50.14375" y="645.883592" style="stroke: #000000; stroke-width: 0.8"/>
      </g>
     </g>
     <g id="text_24">
      <!-- 0.5 -->
      <g transform="translate(27.240625 649.682811) scale(0.1 -0.1)">
       <use xlink:href="#DejaVuSans-30"/>
       <use xlink:href="#DejaVuSans-2e" x="63.623047"/>
       <use xlink:href="#DejaVuSans-35" x="95.410156"/>
      </g>
     </g>
    </g>
    <g id="ytick_13">
     <g id="line2d_71">
      <path d="M 50.14375 607.577245 
L 633.32375 607.577245 
" clip-path="url(#pd81c14e269)" style="fill: none; stroke: #b0b0b0; stroke-opacity: 0.25; stroke-width: 0.8; stroke-linecap: square"/>
     </g>
     <g id="line2d_72">
      <g>
       <use xlink:href="#m203680029d" x="50.14375" y="607.577245" style="stroke: #000000; stroke-width: 0.8"/>
      </g>
     </g>
     <g id="text_25">
      <!-- 0.6 -->
      <g transform="translate(27.240625 611.376464) scale(0.1 -0.1)">
       <use xlink:href="#DejaVuSans-30"/>
       <use xlink:href="#DejaVuSans-2e" x="63.623047"/>
       <use xlink:href="#DejaVuSans-36" x="95.410156"/>
      </g>
     </g>
    </g>
    <g id="ytick_14">
     <g id="line2d_73">
      <path d="M 50.14375 569.270898 
L 633.32375 569.270898 
" clip-path="url(#pd81c14e269)" style="fill: none; stroke: #b0b0b0; stroke-opacity: 0.25; stroke-width: 0.8; stroke-linecap: square"/>
     </g>
     <g id="line2d_74">
      <g>
       <use xlink:href="#m203680029d" x="50.14375" y="569.270898" style="stroke: #000000; stroke-width: 0.8"/>
      </g>
     </g>
     <g id="text_26">
      <!-- 0.7 -->
      <g transform="translate(27.240625 573.070117) scale(0.1 -0.1)">
       <use xlink:href="#DejaVuSans-30"/>
       <use xlink:href="#DejaVuSans-2e" x="63.623047"/>
       <use xlink:href="#DejaVuSans-37" x="95.410156"/>
      </g>
     </g>
    </g>
    <g id="ytick_15">
     <g id="line2d_75">
      <path d="M 50.14375 530.964551 
L 633.32375 530.964551 
" clip-path="url(#pd81c14e269)" style="fill: none; stroke: #b0b0b0; stroke-opacity: 0.25; stroke-width: 0.8; stroke-linecap: square"/>
     </g>
     <g id="line2d_76">
      <g>
       <use xlink:href="#m203680029d" x="50.14375" y="530.964551" style="stroke: #000000; stroke-width: 0.8"/>
      </g>
     </g>
     <g id="text_27">
      <!-- 0.8 -->
      <g transform="translate(27.240625 534.76377) scale(0.1 -0.1)">
       <use xlink:href="#DejaVuSans-30"/>
       <use xlink:href="#DejaVuSans-2e" x="63.623047"/>
       <use xlink:href="#DejaVuSans-38" x="95.410156"/>
      </g>
     </g>
    </g>
    <g id="ytick_16">
     <g id="line2d_77">
      <path d="M 50.14375 492.658204 
L 633.32375 492.658204 
" clip-path="url(#pd81c14e269)" style="fill: none; stroke: #b0b0b0; stroke-opacity: 0.25; stroke-width: 0.8; stroke-linecap: square"/>
     </g>
     <g id="line2d_78">
      <g>
       <use xlink:href="#m203680029d" x="50.14375" y="492.658204" style="stroke: #000000; stroke-width: 0.8"/>
      </g>
     </g>
     <g id="text_28">
      <!-- 0.9 -->
      <g transform="translate(27.240625 496.457423) scale(0.1 -0.1)">
       <defs>
        <path id="DejaVuSans-39" d="M 703 97 
L 703 672 
Q 941 559 1184 500 
Q 1428 441 1663 441 
Q 2288 441 2617 861 
Q 2947 1281 2994 2138 
Q 2813 1869 2534 1725 
Q 2256 1581 1919 1581 
Q 1219 1581 811 2004 
Q 403 2428 403 3163 
Q 403 3881 828 4315 
Q 1253 4750 1959 4750 
Q 2769 4750 3195 4129 
Q 3622 3509 3622 2328 
Q 3622 1225 3098 567 
Q 2575 -91 1691 -91 
Q 1453 -91 1209 -44 
Q 966 3 703 97 
z
M 1959 2075 
Q 2384 2075 2632 2365 
Q 2881 2656 2881 3163 
Q 2881 3666 2632 3958 
Q 2384 4250 1959 4250 
Q 1534 4250 1286 3958 
Q 1038 3666 1038 3163 
Q 1038 2656 1286 2365 
Q 1534 2075 1959 2075 
z
" transform="scale(0.015625)"/>
       </defs>
       <use xlink:href="#DejaVuSans-30"/>
       <use xlink:href="#DejaVuSans-2e" x="63.623047"/>
       <use xlink:href="#DejaVuSans-39" x="95.410156"/>
      </g>
     </g>
    </g>
    <g id="text_29">
     <!-- Recoverability coupling -->
     <g transform="translate(21.160937 628.130625) rotate(-90) scale(0.1 -0.1)">
      <defs>
       <path id="DejaVuSans-76" d="M 191 3500 
L 800 3500 
L 1894 563 
L 2988 3500 
L 3597 3500 
L 2284 0 
L 1503 0 
L 191 3500 
z
" transform="scale(0.015625)"/>
      </defs>
      <use xlink:href="#DejaVuSans-52"/>
      <use xlink:href="#DejaVuSans-65" x="64.982422"/>
      <use xlink:href="#DejaVuSans-63" x="126.505859"/>
      <use xlink:href="#DejaVuSans-6f" x="181.486328"/>
      <use xlink:href="#DejaVuSans-76" x="242.667969"/>
      <use xlink:href="#DejaVuSans-65" x="301.847656"/>
      <use xlink:href="#DejaVuSans-72" x="363.371094"/>
      <use xlink:href="#DejaVuSans-61" x="404.484375"/>
      <use xlink:href="#DejaVuSans-62" x="465.763672"/>
      <use xlink:href="#DejaVuSans-69" x="529.240234"/>
      <use xlink:href="#DejaVuSans-6c" x="557.023438"/>
      <use xlink:href="#DejaVuSans-69" x="584.806641"/>
      <use xlink:href="#DejaVuSans-74" x="612.589844"/>
      <use xlink:href="#DejaVuSans-79" x="651.798828"/>
      <use xlink:href="#DejaVuSans-20" x="710.978516"/>
      <use xlink:href="#DejaVuSans-63" x="742.765625"/>
      <use xlink:href="#DejaVuSans-6f" x="797.746094"/>
      <use xlink:href="#DejaVuSans-75" x="858.927734"/>
      <use xlink:href="#DejaVuSans-70" x="922.306641"/>
      <use xlink:href="#DejaVuSans-6c" x="985.783203"/>
      <use xlink:href="#DejaVuSans-69" x="1013.566406"/>
      <use xlink:href="#DejaVuSans-6e" x="1041.349609"/>
      <use xlink:href="#DejaVuSans-67" x="1104.728516"/>
     </g>
    </g>
   </g>
   <g id="line2d_79">
    <path d="M 76.651932 568.580618 
L 103.160114 562.922771 
L 129.668295 556.718292 
L 156.176477 551.543487 
L 182.684659 546.292836 
L 209.192841 542.004824 
L 235.701023 538.207132 
L 262.209205 534.84575 
L 288.717386 549.416336 
L 315.225568 547.232874 
L 341.73375 545.271206 
L 368.241932 543.097321 
L 394.750114 541.145229 
L 421.258295 540.145434 
L 447.766477 538.79322 
L 474.274659 536.810866 
L 500.782841 535.364418 
L 527.291023 532.191121 
L 553.799205 528.840081 
L 580.307386 526.084706 
L 606.815568 522.040705 
" clip-path="url(#pd81c14e269)" style="fill: none; stroke: #1f4e79; stroke-width: 2.2; stroke-linecap: square"/>
   </g>
   <g id="line2d_80">
    <path d="M 427.885341 673.478125 
L 427.885341 465.958125 
" clip-path="url(#pd81c14e269)" style="fill: none; stroke-dasharray: 4.44,1.92; stroke-dashoffset: 0; stroke: #1f4e79; stroke-width: 1.2"/>
   </g>
   <g id="line2d_81">
    <path d="M 76.651932 648.737415 
L 103.160114 637.66803 
L 129.668295 628.5086 
L 156.176477 618.762699 
L 182.684659 609.527422 
L 209.192841 601.284662 
L 235.701023 593.507707 
L 262.209205 586.251719 
L 288.717386 578.76053 
L 315.225568 571.07551 
L 341.73375 563.255653 
L 368.241932 555.72156 
L 394.750114 548.567467 
L 421.258295 541.834743 
L 447.766477 535.185145 
L 474.274659 529.156109 
L 500.782841 523.852212 
L 527.291023 518.933677 
L 553.799205 514.579778 
L 580.307386 510.590172 
L 606.815568 506.93 
" clip-path="url(#pd81c14e269)" style="fill: none; stroke: #c6651a; stroke-width: 2.2; stroke-linecap: square"/>
   </g>
   <g id="line2d_82">
    <path d="M 331.130477 673.478125 
L 331.130477 465.958125 
" clip-path="url(#pd81c14e269)" style="fill: none; stroke-dasharray: 4.44,1.92; stroke-dashoffset: 0; stroke: #c6651a; stroke-width: 1.2"/>
   </g>
   <g id="patch_19">
    <path d="M 50.14375 673.478125 
L 50.14375 465.958125 
" style="fill: none; stroke: #000000; stroke-width: 0.8; stroke-linejoin: miter; stroke-linecap: square"/>
   </g>
   <g id="patch_20">
    <path d="M 633.32375 673.478125 
L 633.32375 465.958125 
" style="fill: none; stroke: #000000; stroke-width: 0.8; stroke-linejoin: miter; stroke-linecap: square"/>
   </g>
   <g id="patch_21">
    <path d="M 50.14375 673.478125 
L 633.32375 673.478125 
" style="fill: none; stroke: #000000; stroke-width: 0.8; stroke-linejoin: miter; stroke-linecap: square"/>
   </g>
   <g id="patch_22">
    <path d="M 50.14375 465.958125 
L 633.32375 465.958125 
" style="fill: none; stroke: #000000; stroke-width: 0.8; stroke-linejoin: miter; stroke-linecap: square"/>
   </g>
  </g>
 </g>
 <defs>
  <clipPath id="p136e03ab98">
   <rect x="50.14375" y="22.318125" width="583.18" height="207.52"/>
  </clipPath>
  <clipPath id="pb999aa0c49">
   <rect x="50.14375" y="244.138125" width="583.18" height="207.52"/>
  </clipPath>
  <clipPath id="pd81c14e269">
   <rect x="50.14375" y="465.958125" width="583.18" height="207.52"/>
  </clipPath>
 </defs>
</svg>
