<?xml version="1.0" encoding="utf-8" standalone="no"?>
<!DOCTYPE svg PUBLIC "-//W3C//DTD SVG 1.1//EN"
  "http://www.w3.org/Graphics/SVG/1.1/DTD/svg11.dtd">
<svg xmlns:xlink="http://www.w3.org/1999/xlink" width="676.26pt" height="584.228062pt" viewBox="0 0 676.26 584.228062" xmlns="http://www.w3.org/2000/svg" version="1.1">
 <metadata>
  <rdf:RDF xmlns:dc="http://purl.org/dc/elements/1.1/" xmlns:cc="http://creativecommons.org/ns#" xmlns:rdf="http://www.w3.org/1999/02/22-rdf-syntax-ns#">
   <cc:Work>
    <dc:type rdf:resource="http://purl.org/dc/dcmitype/StillImage"/>
    <dc:date>2026-03-25T16:17:37.097991</dc:date>
    <dc:format>image/svg+xml</dc:format>
    <dc:creator>
     <cc:Agent>
      <dc:title>Matplotlib v3.9.4, https://matplotlib.org/</dc:title>
     </cc:Agent>
    </dc:creator>
   </cc:Work>
  </rdf:RDF>
 </metadata>
 <defs>
  <style type="text/css">*{stroke-linejoin: round; stroke-linecap: butt}</style>
 </defs>
 <g id="figure_1">
  <g id="patch_1">
   <path d="M 0 584.228062 
L 676.26 584.228062 
L 676.26 0 
L 0 0 
z
" style="fill: #ffffff"/>
  </g>
  <g id="axes_1">
   <g id="patch_2">
    <path d="M 52.04 326.89502 
L 669.06 326.89502 
L 669.06 26.304 
L 52.04 26.304 
z
" style="fill: #ffffff"/>
   </g>
   <g id="matplotlib.axis_1">
    <g id="xtick_1">
     <g id="line2d_1">
      <path d="M 52.04 326.89502 
L 52.04 26.304 
" clip-path="url(#p1fa66d970f)" style="fill: none; stroke: #777777; stroke-opacity: 0.2; stroke-width: 0.8; stroke-linecap: square"/>
     </g>
     <g id="line2d_2">
      <defs>
       <path id="mb68e3af0b6" d="M 0 0 
L 0 3.5 
" style="stroke: #000000; stroke-width: 0.8"/>
      </defs>
      <g>
       <use xlink:href="#mb68e3af0b6" x="52.04" y="326.89502" style="stroke: #000000; stroke-width: 0.8"/>
      </g>
     </g>
     <g id="text_1">
      <text style="font: 10px 'DejaVu Serif'; text-anchor: middle" x="52.04" y="341.493458" transform="rotate(-0 52.04 341.493458)">0.08</text>
     </g>
    </g>
    <g id="xtick_2">
     <g id="line2d_3">
      <path d="M 176.690505 326.89502 
L 176.690505 26.304 
" clip-path="url(#p1fa66d970f)" style="fill: none; stroke: #777777; stroke-opacity: 0.2; stroke-width: 0.8; stroke-linecap: square"/>
     </g>
     <g id="line2d_4">
      <g>
       <use xlink:href="#mb68e3af0b6" x="176.690505" y="326.89502" style="stroke: #000000; stroke-width: 0.8"/>
      </g>
     </g>
     <g id="text_2">
      <text style="font: 10px 'DejaVu Serif'; text-anchor: middle" x="176.690505" y="341.493458" transform="rotate(-0 176.690505 341.493458)">0.10</text>
     </g>
    </g>
    <g id="xtick_3">
     <g id="line2d_5">
      <path d="M 301.34101 326.89502 
L 301.34101 26.304 
" clip-path="url(#p1fa66d970f)" style="fill: none; stroke: #777777; stroke-opacity: 0.2; stroke-width: 0.8; stroke-linecap: square"/>
     </g>
     <g id="line2d_6">
      <g>
       <use xlink:href="#mb68e3af0b6" x="301.34101" y="326.89502" style="stroke: #000000; stroke-width: 0.8"/>
      </g>
     </g>
     <g id="text_3">
      <text style="font: 10px 'DejaVu Serif'; text-anchor: middle" x="301.34101" y="341.493458" transform="rotate(-0 301.34101 341.493458)">0.12</text>
     </g>
    </g>
    <g id="xtick_4">
     <g id="line2d_7">
      <path d="M 425.991515 326.89502 
L 425.991515 26.304 
" clip-path="url(#p1fa66d970f)" style="fill: none; stroke: #777777; stroke-opacity: 0.2; stroke-width: 0.8; stroke-linecap: square"/>
     </g>
     <g id="line2d_8">
      <g>
       <use xlink:href="#mb68e3af0b6" x="425.991515" y="326.89502" style="stroke: #000000; stroke-width: 0.8"/>
      </g>
     </g>
     <g id="text_4">
      <text style="font: 10px 'DejaVu Serif'; text-anchor: middle" x="425.991515" y="341.493458" transform="rotate(-0 425.991515 341.493458)">0.14</text>
     </g>
    </g>
    <g id="xtick_5">
     <g id="line2d_9">
      <path d="M 550.64202 326.89502 
L 550.64202 26.304 
" clip-path="url(#p1fa66d970f)" style="fill: none; stroke: #777777; stroke-opacity: 0.2; stroke-width: 0.8; stroke-linecap: square"/>
     </g>
     <g id="line2d_10">
      <g>
       <use xlink:href="#mb68e3af0b6" x="550.64202" y="326.89502" style="stroke: #000000; stroke-width: 0.8"/>
      </g>
     </g>
     <g id="text_5">
      <text style="font: 10px 'DejaVu Serif'; text-anchor: middle" x="550.64202" y="341.493458" transform="rotate(-0 550.64202 341.493458)">0.16</text>
     </g>
    </g>
    <g id="text_6">
     <text style="font: 11px 'DejaVu Serif'; text-anchor: middle" x="360.55" y="355.931427" transform="rotate(-0 360.55 355.931427)">Kernel width</text>
    </g>
   </g>
   <g id="matplotlib.axis_2">
    <g id="ytick_1">
     <g id="line2d_11">
      <path d="M 52.04 321.114424 
L 669.06 321.114424 
" clip-path="url(#p1fa66d970f)" style="fill: none; stroke: #777777; stroke-opacity: 0.2; stroke-width: 0.8; stroke-linecap: square"/>
     </g>
     <g id="line2d_12">
      <defs>
       <path id="m72993b0be2" d="M 0 0 
L -3.5 0 
" style="stroke: #000000; stroke-width: 0.8"/>
      </defs>
      <g>
       <use xlink:href="#m72993b0be2" x="52.04" y="321.114424" style="stroke: #000000; stroke-width: 0.8"/>
      </g>
     </g>
     <g id="text_7">
      <text style="font: 10px 'DejaVu Serif'; text-anchor: end" x="45.04" y="324.913643" transform="rotate(-0 45.04 324.913643)">0.0</text>
     </g>
    </g>
    <g id="ytick_2">
     <g id="line2d_13">
      <path d="M 52.04 263.308458 
L 669.06 263.308458 
" clip-path="url(#p1fa66d970f)" style="fill: none; stroke: #777777; stroke-opacity: 0.2; stroke-width: 0.8; stroke-linecap: square"/>
     </g>
     <g id="line2d_14">
      <g>
       <use xlink:href="#m72993b0be2" x="52.04" y="263.308458" style="stroke: #000000; stroke-width: 0.8"/>
      </g>
     </g>
     <g id="text_8">
      <text style="font: 10px 'DejaVu Serif'; text-anchor: end" x="45.04" y="267.107677" transform="rotate(-0 45.04 267.107677)">0.2</text>
     </g>
    </g>
    <g id="ytick_3">
     <g id="line2d_15">
      <path d="M 52.04 205.502493 
L 669.06 205.502493 
" clip-path="url(#p1fa66d970f)" style="fill: none; stroke: #777777; stroke-opacity: 0.2; stroke-width: 0.8; stroke-linecap: square"/>
     </g>
     <g id="line2d_16">
      <g>
       <use xlink:href="#m72993b0be2" x="52.04" y="205.502493" style="stroke: #000000; stroke-width: 0.8"/>
      </g>
     </g>
     <g id="text_9">
      <text style="font: 10px 'DejaVu Serif'; text-anchor: end" x="45.04" y="209.301712" transform="rotate(-0 45.04 209.301712)">0.4</text>
     </g>
    </g>
    <g id="ytick_4">
     <g id="line2d_17">
      <path d="M 52.04 147.696527 
L 669.06 147.696527 
" clip-path="url(#p1fa66d970f)" style="fill: none; stroke: #777777; stroke-opacity: 0.2; stroke-width: 0.8; stroke-linecap: square"/>
     </g>
     <g id="line2d_18">
      <g>
       <use xlink:href="#m72993b0be2" x="52.04" y="147.696527" style="stroke: #000000; stroke-width: 0.8"/>
      </g>
     </g>
     <g id="text_10">
      <text style="font: 10px 'DejaVu Serif'; text-anchor: end" x="45.04" y="151.495746" transform="rotate(-0 45.04 151.495746)">0.6</text>
     </g>
    </g>
    <g id="ytick_5">
     <g id="line2d_19">
      <path d="M 52.04 89.890562 
L 669.06 89.890562 
" clip-path="url(#p1fa66d970f)" style="fill: none; stroke: #777777; stroke-opacity: 0.2; stroke-width: 0.8; stroke-linecap: square"/>
     </g>
     <g id="line2d_20">
      <g>
       <use xlink:href="#m72993b0be2" x="52.04" y="89.890562" style="stroke: #000000; stroke-width: 0.8"/>
      </g>
     </g>
     <g id="text_11">
      <text style="font: 10px 'DejaVu Serif'; text-anchor: end" x="45.04" y="93.689781" transform="rotate(-0 45.04 93.689781)">0.8</text>
     </g>
    </g>
    <g id="ytick_6">
     <g id="line2d_21">
      <path d="M 52.04 32.084597 
L 669.06 32.084597 
" clip-path="url(#p1fa66d970f)" style="fill: none; stroke: #777777; stroke-opacity: 0.2; stroke-width: 0.8; stroke-linecap: square"/>
     </g>
     <g id="line2d_22">
      <g>
       <use xlink:href="#m72993b0be2" x="52.04" y="32.084597" style="stroke: #000000; stroke-width: 0.8"/>
      </g>
     </g>
     <g id="text_12">
      <text style="font: 10px 'DejaVu Serif'; text-anchor: end" x="45.04" y="35.883815" transform="rotate(-0 45.04 35.883815)">1.0</text>
     </g>
    </g>
    <g id="text_13">
     <text style="font: 11px 'DejaVu Serif'; text-anchor: middle" x="22.692813" y="176.59951" transform="rotate(-90 22.692813 176.59951)">Coupled diagnostic score</text>
    </g>
   </g>
   <g id="line2d_23">
    <path d="M 52.04 321.114424 
L 70.737576 321.114424 
L 89.435152 321.114424 
L 108.132727 321.114424 
L 126.830303 317.689998 
L 145.527879 304.294911 
L 164.225455 287.141569 
L 182.92303 270.743751 
L 201.620606 230.375822 
L 220.318182 183.829302 
L 239.015758 144.679056 
L 257.713333 118.877074 
L 276.410909 101.000869 
L 295.108485 84.94873 
L 313.806061 74.523713 
L 332.503636 67.114723 
L 351.201212 60.691613 
L 369.898788 55.802384 
L 388.596364 52.046731 
L 407.293939 49.212504 
L 425.991515 55.127789 
L 444.689091 61.775186 
L 463.386667 65.208571 
L 482.084242 74.505793 
L 500.781818 73.283197 
L 519.479394 79.258311 
L 538.17697 83.354731 
L 556.874545 96.732476 
L 575.572121 97.852178 
L 594.269697 97.440021 
L 612.967273 109.086189 
L 631.664848 105.474183 
L 650.362424 115.274318 
L 669.06 108.887625 
" clip-path="url(#p1fa66d970f)" style="fill: none; stroke: #463480; stroke-opacity: 0.15; stroke-linecap: square"/>
   </g>
   <g id="line2d_24">
    <path d="M 52.04 321.114424 
L 70.737576 321.114424 
L 89.435152 321.114424 
L 108.132727 321.114424 
L 126.830303 306.974218 
L 145.527879 321.114424 
L 164.225455 310.70039 
L 182.92303 242.880986 
L 201.620606 197.392605 
L 220.318182 158.734288 
L 239.015758 127.05315 
L 257.713333 105.88923 
L 276.410909 90.178436 
L 295.108485 78.099301 
L 313.806061 69.928428 
L 332.503636 63.018592 
L 351.201212 57.942939 
L 369.898788 53.901435 
L 388.596364 50.601003 
L 407.293939 48.003203 
L 425.991515 45.789524 
L 444.689091 59.901116 
L 463.386667 63.648677 
L 482.084242 74.700599 
L 500.781818 83.541733 
L 519.479394 91.582832 
L 538.17697 96.485067 
L 556.874545 100.578885 
L 575.572121 102.882453 
L 594.269697 116.526395 
L 612.967273 115.600343 
L 631.664848 128.055795 
L 650.362424 124.399278 
L 669.06 134.987019 
" clip-path="url(#p1fa66d970f)" style="fill: none; stroke: #463480; stroke-opacity: 0.15; stroke-linecap: square"/>
   </g>
   <g id="line2d_25">
    <path d="M 52.04 321.114424 
L 70.737576 321.105753 
L 89.435152 319.617249 
L 108.132727 319.229371 
L 126.830303 321.114424 
L 145.527879 319.138038 
L 164.225455 318.916641 
L 182.92303 307.736389 
L 201.620606 276.580419 
L 220.318182 239.688652 
L 239.015758 189.361911 
L 257.713333 153.630021 
L 276.410909 125.535165 
L 295.108485 115.558145 
L 313.806061 107.765034 
L 332.503636 99.670464 
L 351.201212 91.984872 
L 369.898788 84.567789 
L 388.596364 77.391178 
L 407.293939 71.135127 
L 425.991515 94.674873 
L 444.689091 72.259454 
L 463.386667 68.30726 
L 482.084242 63.363693 
L 500.781818 64.655657 
L 519.479394 64.059099 
L 538.17697 72.17419 
L 556.874545 74.143639 
L 575.572121 74.953501 
L 594.269697 81.801484 
L 612.967273 81.338747 
L 631.664848 87.241893 
L 650.362424 84.998732 
L 669.06 89.975248 
" clip-path="url(#p1fa66d970f)" style="fill: none; stroke: #463480; stroke-opacity: 0.15; stroke-linecap: square"/>
   </g>
   <g id="line2d_26">
    <path d="M 52.04 321.114424 
L 70.737576 321.114424 
L 89.435152 309.84255 
L 108.132727 293.116683 
L 126.830303 274.521082 
L 145.527879 262.449173 
L 164.225455 253.287794 
L 182.92303 246.377669 
L 201.620606 241.149987 
L 220.318182 225.45191 
L 239.015758 179.423043 
L 257.713333 140.121345 
L 276.410909 115.412185 
L 295.108485 164.315164 
L 313.806061 130.828169 
L 332.503636 105.886629 
L 351.201212 88.358415 
L 369.898788 72.478538 
L 388.596364 65.064345 
L 407.293939 58.159422 
L 425.991515 56.648953 
L 444.689091 58.290353 
L 463.386667 56.86717 
L 482.084242 60.756066 
L 500.781818 61.458409 
L 519.479394 68.308994 
L 538.17697 64.392929 
L 556.874545 67.563008 
L 575.572121 69.533035 
L 594.269697 68.129795 
L 612.967273 81.07284 
L 631.664848 76.341422 
L 650.362424 87.051711 
L 669.06 79.323053 
" clip-path="url(#p1fa66d970f)" style="fill: none; stroke: #463480; stroke-opacity: 0.15; stroke-linecap: square"/>
   </g>
   <g id="line2d_27">
    <path d="M 52.04 321.114424 
L 70.737576 321.114424 
L 89.435152 321.114424 
L 108.132727 312.913492 
L 126.830303 290.27841 
L 145.527879 256.115084 
L 164.225455 218.408542 
L 182.92303 182.693415 
L 201.620606 149.995182 
L 220.318182 123.801276 
L 239.015758 104.183954 
L 257.713333 95.653239 
L 276.410909 88.093664 
L 295.108485 81.049429 
L 313.806061 74.321392 
L 332.503636 68.108985 
L 351.201212 62.629558 
L 369.898788 57.793222 
L 388.596364 53.544483 
L 407.293939 49.888256 
L 425.991515 46.747369 
L 444.689091 44.038292 
L 463.386667 41.765651 
L 482.084242 39.852273 
L 500.781818 40.828038 
L 519.479394 41.907275 
L 538.17697 49.994619 
L 556.874545 49.85415 
L 575.572121 48.314488 
L 594.269697 55.140795 
L 612.967273 52.165522 
L 631.664848 58.21087 
L 650.362424 63.829321 
L 669.06 58.00219 
" clip-path="url(#p1fa66d970f)" style="fill: none; stroke: #463480; stroke-opacity: 0.15; stroke-linecap: square"/>
   </g>
   <g id="line2d_28">
    <path d="M 52.04 321.114424 
L 70.737576 321.11269 
L 89.435152 318.560614 
L 108.132727 313.497679 
L 126.830303 302.115626 
L 145.527879 292.622326 
L 164.225455 277.690987 
L 182.92303 250.086442 
L 201.620606 219.098803 
L 220.318182 186.301085 
L 239.015758 148.940223 
L 257.713333 122.834182 
L 276.410909 104.044064 
L 295.108485 104.794154 
L 313.806061 91.473347 
L 332.503636 80.759879 
L 351.201212 72.321479 
L 369.898788 64.908674 
L 388.596364 59.729548 
L 407.293939 55.279703 
L 425.991515 59.797701 
L 444.689091 59.25288 
L 463.386667 59.159466 
L 482.084242 62.635685 
L 500.781818 64.753407 
L 519.479394 69.023302 
L 538.17697 73.280307 
L 556.874545 77.774432 
L 575.572121 78.707131 
L 594.269697 83.807698 
L 612.967273 87.852728 
L 631.664848 91.064832 
L 650.362424 95.110672 
L 669.06 94.235027 
" clip-path="url(#p1fa66d970f)" style="fill: none; stroke: #463480; stroke-width: 2.6; stroke-linecap: square"/>
   </g>
   <g id="line2d_29">
    <path d="M 52.04 321.114424 
L 70.737576 282.688486 
L 89.435152 248.517935 
L 108.132727 215.398874 
L 126.830303 208.306371 
L 145.527879 233.047035 
L 164.225455 209.827535 
L 182.92303 143.406169 
L 201.620606 118.566078 
L 220.318182 112.537494 
L 239.015758 106.454572 
L 257.713333 321.114424 
L 276.410909 282.927803 
L 295.108485 258.272692 
L 313.806061 229.343118 
L 332.503636 209.401505 
L 351.201212 217.068021 
L 369.898788 169.609324 
L 388.596364 168.175158 
L 407.293939 164.055616 
L 425.991515 171.439461 
L 444.689091 143.785954 
L 463.386667 147.047077 
L 482.084242 149.120577 
L 500.781818 167.934107 
L 519.479394 185.538914 
L 538.17697 129.858185 
L 556.874545 125.730261 
L 575.572121 99.674222 
L 594.269697 114.235255 
L 612.967273 106.314682 
L 631.664848 97.168044 
L 650.362424 86.101959 
L 669.06 134.329187 
" clip-path="url(#p1fa66d970f)" style="fill: none; stroke: #30698e; stroke-opacity: 0.15; stroke-linecap: square"/>
   </g>
   <g id="line2d_30">
    <path d="M 52.04 321.114424 
L 70.737576 309.599476 
L 89.435152 313.466117 
L 108.132727 321.114424 
L 126.830303 321.114424 
L 145.527879 321.114424 
L 164.225455 321.114424 
L 182.92303 321.114424 
L 201.620606 298.791783 
L 220.318182 321.114424 
L 239.015758 234.497965 
L 257.713333 154.247967 
L 276.410909 321.114424 
L 295.108485 321.114424 
L 313.806061 235.096546 
L 332.503636 159.745025 
L 351.201212 116.833344 
L 369.898788 65.98057 
L 388.596364 238.077311 
L 407.293939 172.608008 
L 425.991515 109.077807 
L 444.689091 280.568742 
L 463.386667 210.464557 
L 482.084242 165.646725 
L 500.781818 136.665993 
L 519.479394 102.115657 
L 538.17697 89.263945 
L 556.874545 76.613977 
L 575.572121 60.962434 
L 594.269697 44.18194 
L 612.967273 56.767166 
L 631.664848 37.885714 
L 650.362424 51.098424 
L 669.06 32.084597 
" clip-path="url(#p1fa66d970f)" style="fill: none; stroke: #30698e; stroke-opacity: 0.15; stroke-linecap: square"/>
   </g>
   <g id="line2d_31">
    <path d="M 52.04 321.114424 
L 70.737576 306.054525 
L 89.435152 288.706665 
L 108.132727 266.821616 
L 126.830303 234.537273 
L 145.527879 203.77843 
L 164.225455 171.725311 
L 182.92303 158.610005 
L 201.620606 150.741746 
L 220.318182 142.780997 
L 239.015758 133.623665 
L 257.713333 124.623854 
L 276.410909 115.88735 
L 295.108485 107.728327 
L 313.806061 99.002805 
L 332.503636 91.209983 
L 351.201212 84.116613 
L 369.898788 77.613731 
L 388.596364 71.622143 
L 407.293939 65.806285 
L 425.991515 60.924571 
L 444.689091 56.701556 
L 463.386667 54.108958 
L 482.084242 52.685197 
L 500.781818 52.070431 
L 519.479394 159.886071 
L 538.17697 184.139142 
L 556.874545 115.130959 
L 575.572121 103.462825 
L 594.269697 100.941906 
L 612.967273 97.962298 
L 631.664848 93.621359 
L 650.362424 89.811079 
L 669.06 85.588931 
" clip-path="url(#p1fa66d970f)" style="fill: none; stroke: #30698e; stroke-opacity: 0.15; stroke-linecap: square"/>
   </g>
   <g id="line2d_32">
    <path d="M 52.04 321.114424 
L 70.737576 314.133775 
L 89.435152 294.904043 
L 108.132727 266.44212 
L 126.830303 232.61667 
L 145.527879 197.078719 
L 164.225455 171.033085 
L 182.92303 147.989604 
L 201.620606 126.09675 
L 220.318182 109.243999 
L 239.015758 96.822653 
L 257.713333 88.219681 
L 276.410909 79.934352 
L 295.108485 73.74709 
L 313.806061 69.413377 
L 332.503636 64.686005 
L 351.201212 61.202617 
L 369.898788 171.784851 
L 388.596364 143.045459 
L 407.293939 122.572321 
L 425.991515 113.235501 
L 444.689091 101.439905 
L 463.386667 91.838912 
L 482.084242 79.859204 
L 500.781818 72.629123 
L 519.479394 63.641451 
L 538.17697 61.429217 
L 556.874545 48.549759 
L 575.572121 45.057411 
L 594.269697 40.164136 
L 612.967273 45.887216 
L 631.664848 39.508039 
L 650.362424 44.305356 
L 669.06 48.893993 
" clip-path="url(#p1fa66d970f)" style="fill: none; stroke: #30698e; stroke-opacity: 0.15; stroke-linecap: square"/>
   </g>
   <g id="line2d_33">
    <path d="M 52.04 321.114424 
L 70.737576 321.114424 
L 89.435152 321.114424 
L 108.132727 321.114424 
L 126.830303 320.667006 
L 145.527879 260.824536 
L 164.225455 211.474427 
L 182.92303 194.828332 
L 201.620606 321.114424 
L 220.318182 310.622063 
L 239.015758 203.809645 
L 257.713333 185.776785 
L 276.410909 321.114424 
L 295.108485 321.114424 
L 313.806061 291.612571 
L 332.503636 263.857615 
L 351.201212 211.796695 
L 369.898788 187.8578 
L 388.596364 158.029922 
L 407.293939 139.346745 
L 425.991515 116.200658 
L 444.689091 291.287124 
L 463.386667 162.934758 
L 482.084242 111.51404 
L 500.781818 101.261863 
L 519.479394 60.706064 
L 538.17697 49.91369 
L 556.874545 178.411438 
L 575.572121 116.317426 
L 594.269697 99.034888 
L 612.967273 78.962922 
L 631.664848 55.88996 
L 650.362424 32.606584 
L 669.06 41.31592 
" clip-path="url(#p1fa66d970f)" style="fill: none; stroke: #30698e; stroke-opacity: 0.15; stroke-linecap: square"/>
   </g>
   <g id="line2d_34">
    <path d="M 52.04 321.114424 
L 70.737576 306.718137 
L 89.435152 293.341837 
L 108.132727 278.178292 
L 126.830303 263.448349 
L 145.527879 243.168629 
L 164.225455 217.034956 
L 182.92303 193.189707 
L 201.620606 203.062156 
L 220.318182 199.259796 
L 239.015758 155.0417 
L 257.713333 174.796542 
L 276.410909 224.19567 
L 295.108485 216.395391 
L 313.806061 184.893684 
L 332.503636 157.780027 
L 351.201212 138.203458 
L 369.898788 134.569255 
L 388.596364 155.789999 
L 407.293939 132.877795 
L 425.991515 114.1756 
L 444.689091 174.756656 
L 463.386667 133.278853 
L 482.084242 111.765149 
L 500.781818 106.112303 
L 519.479394 114.377631 
L 538.17697 102.920836 
L 556.874545 108.887279 
L 575.572121 85.094864 
L 594.269697 79.711625 
L 612.967273 77.178857 
L 631.664848 64.814623 
L 650.362424 60.78468 
L 669.06 68.442526 
" clip-path="url(#p1fa66d970f)" style="fill: none; stroke: #30698e; stroke-width: 2.6; stroke-linecap: square"/>
   </g>
   <g id="line2d_35">
    <path d="M 52.04 321.114424 
L 70.737576 300.649667 
L 89.435152 285.372417 
L 108.132727 321.114424 
L 126.830303 311.264576 
L 145.527879 249.340514 
L 164.225455 210.642021 
L 182.92303 198.396695 
L 201.620606 187.974568 
L 220.318182 180.895361 
L 239.015758 176.013647 
L 257.713333 175.258701 
L 276.410909 171.257083 
L 295.108485 321.114424 
L 313.806061 312.238607 
L 332.503636 282.915664 
L 351.201212 229.747182 
L 369.898788 195.176035 
L 388.596364 321.114424 
L 407.293939 176.447191 
L 425.991515 125.373887 
L 444.689091 210.448949 
L 463.386667 140.603446 
L 482.084242 104.394079 
L 500.781818 88.306968 
L 519.479394 70.80072 
L 538.17697 53.97745 
L 556.874545 60.249975 
L 575.572121 41.428931 
L 594.269697 46.036933 
L 612.967273 51.419536 
L 631.664848 33.684666 
L 650.362424 36.284489 
L 669.06 39.390403 
" clip-path="url(#p1fa66d970f)" style="fill: none; stroke: #1f968b; stroke-opacity: 0.15; stroke-linecap: square"/>
   </g>
   <g id="line2d_36">
    <path d="M 52.04 321.114424 
L 70.737576 306.504255 
L 89.435152 292.743834 
L 108.132727 281.90377 
L 126.830303 272.252775 
L 145.527879 245.286871 
L 164.225455 237.71111 
L 182.92303 231.323551 
L 201.620606 292.517235 
L 220.318182 217.713425 
L 239.015758 263.738824 
L 257.713333 160.865883 
L 276.410909 144.322104 
L 295.108485 140.726284 
L 313.806061 138.012005 
L 332.503636 135.828096 
L 351.201212 133.224804 
L 369.898788 132.15655 
L 388.596364 129.792864 
L 407.293939 274.478883 
L 425.991515 113.309204 
L 444.689091 98.580533 
L 463.386667 96.76716 
L 482.084242 95.250331 
L 500.781818 94.13959 
L 519.479394 93.394471 
L 538.17697 92.026492 
L 556.874545 90.517757 
L 575.572121 90.257052 
L 594.269697 134.191898 
L 612.967273 86.363531 
L 631.664848 59.830015 
L 650.362424 62.64083 
L 669.06 36.296628 
" clip-path="url(#p1fa66d970f)" style="fill: none; stroke: #1f968b; stroke-opacity: 0.15; stroke-linecap: square"/>
   </g>
   <g id="line2d_37">
    <path d="M 52.04 321.114424 
L 70.737576 321.114424 
L 89.435152 321.114424 
L 108.132727 321.114424 
L 126.830303 321.114424 
L 145.527879 321.114424 
L 164.225455 321.114424 
L 182.92303 321.114424 
L 201.620606 314.345345 
L 220.318182 309.986486 
L 239.015758 306.458588 
L 257.713333 292.788345 
L 276.410909 321.114424 
L 295.108485 312.65192 
L 313.806061 321.114424 
L 332.503636 321.114424 
L 351.201212 321.114424 
L 369.898788 321.114424 
L 388.596364 321.114424 
L 407.293939 73.802873 
L 425.991515 67.251145 
L 444.689091 62.961364 
L 463.386667 61.124001 
L 482.084242 62.735921 
L 500.781818 57.988317 
L 519.479394 62.293994 
L 538.17697 55.880711 
L 556.874545 58.890668 
L 575.572121 53.003708 
L 594.269697 52.363507 
L 612.967273 51.413177 
L 631.664848 50.435389 
L 650.362424 169.510187 
L 669.06 129.74026 
" clip-path="url(#p1fa66d970f)" style="fill: none; stroke: #1f968b; stroke-opacity: 0.15; stroke-linecap: square"/>
   </g>
   <g id="line2d_38">
    <path d="M 52.04 321.114424 
L 70.737576 321.114424 
L 89.435152 321.114424 
L 108.132727 321.114424 
L 126.830303 321.114424 
L 145.527879 269.630408 
L 164.225455 214.497101 
L 182.92303 321.114424 
L 201.620606 257.833366 
L 220.318182 192.427362 
L 239.015758 133.675402 
L 257.713333 110.955056 
L 276.410909 105.151048 
L 295.108485 101.121394 
L 313.806061 96.446337 
L 332.503636 92.901097 
L 351.201212 88.92896 
L 369.898788 257.580176 
L 388.596364 146.039809 
L 407.293939 215.514197 
L 425.991515 71.986898 
L 444.689091 45.622465 
L 463.386667 44.02702 
L 482.084242 50.15821 
L 500.781818 69.453552 
L 519.479394 88.012735 
L 538.17697 133.317872 
L 556.874545 121.423138 
L 575.572121 107.748559 
L 594.269697 150.438842 
L 612.967273 135.834743 
L 631.664848 148.477486 
L 650.362424 188.414182 
L 669.06 171.518077 
" clip-path="url(#p1fa66d970f)" style="fill: none; stroke: #1f968b; stroke-opacity: 0.15; stroke-linecap: square"/>
   </g>
   <g id="line2d_39">
    <path d="M 52.04 321.114424 
L 70.737576 300.431449 
L 89.435152 321.114424 
L 108.132727 306.284881 
L 126.830303 283.472046 
L 145.527879 281.574565 
L 164.225455 278.945261 
L 182.92303 280.371912 
L 201.620606 289.111018 
L 220.318182 311.866336 
L 239.015758 321.114424 
L 257.713333 319.136015 
L 276.410909 239.908604 
L 295.108485 182.074602 
L 313.806061 160.558644 
L 332.503636 144.556218 
L 351.201212 142.103222 
L 369.898788 140.098222 
L 388.596364 137.563142 
L 407.293939 169.441976 
L 425.991515 225.551625 
L 444.689091 183.665133 
L 463.386667 153.065257 
L 482.084242 140.458932 
L 500.781818 125.483429 
L 519.479394 108.831554 
L 538.17697 88.759588 
L 556.874545 67.780358 
L 575.572121 72.993878 
L 594.269697 127.752024 
L 612.967273 78.000453 
L 631.664848 53.840739 
L 650.362424 58.30914 
L 669.06 32.084597 
" clip-path="url(#p1fa66d970f)" style="fill: none; stroke: #1f968b; stroke-opacity: 0.15; stroke-linecap: square"/>
   </g>
   <g id="line2d_40">
    <path d="M 52.04 321.114424 
L 70.737576 309.962844 
L 89.435152 308.291905 
L 108.132727 310.306385 
L 126.830303 301.843649 
L 145.527879 273.389356 
L 164.225455 252.581983 
L 182.92303 270.464201 
L 201.620606 268.356307 
L 220.318182 242.577794 
L 239.015758 240.200177 
L 257.713333 211.8008 
L 276.410909 196.350652 
L 295.108485 211.537725 
L 313.806061 205.674003 
L 332.503636 195.4631 
L 351.201212 183.023718 
L 369.898788 209.225081 
L 388.596364 211.124932 
L 407.293939 181.937024 
L 425.991515 120.694552 
L 444.689091 120.255689 
L 463.386667 99.117377 
L 482.084242 90.599494 
L 500.781818 87.074371 
L 519.479394 84.666695 
L 538.17697 84.792423 
L 556.874545 79.772379 
L 575.572121 73.086426 
L 594.269697 102.156641 
L 612.967273 80.606288 
L 631.664848 69.253659 
L 650.362424 103.031766 
L 669.06 81.805993 
" clip-path="url(#p1fa66d970f)" style="fill: none; stroke: #1f968b; stroke-width: 2.6; stroke-linecap: square"/>
   </g>
   <g id="line2d_41">
    <path d="M 52.04 321.114424 
L 70.737576 321.114424 
L 89.435152 321.114424 
L 108.132727 321.114424 
L 126.830303 296.565097 
L 145.527879 321.114424 
L 164.225455 239.504829 
L 182.92303 235.386154 
L 201.620606 212.912062 
L 220.318182 217.906786 
L 239.015758 189.209593 
L 257.713333 235.039607 
L 276.410909 200.987269 
L 295.108485 184.738301 
L 313.806061 151.591782 
L 332.503636 143.353276 
L 351.201212 151.09205 
L 369.898788 142.01449 
L 388.596364 149.454696 
L 407.293939 172.886055 
L 425.991515 180.306318 
L 444.689091 151.540335 
L 463.386667 137.30735 
L 482.084242 122.054957 
L 500.781818 105.785468 
L 519.479394 111.576181 
L 538.17697 93.247354 
L 556.874545 92.329685 
L 575.572121 91.551905 
L 594.269697 149.673781 
L 612.967273 62.04803 
L 631.664848 61.342508 
L 650.362424 60.491026 
L 669.06 74.186415 
" clip-path="url(#p1fa66d970f)" style="fill: none; stroke: #4ac16d; stroke-opacity: 0.15; stroke-linecap: square"/>
   </g>
   <g id="line2d_42">
    <path d="M 52.04 321.114424 
L 70.737576 321.114424 
L 89.435152 321.114424 
L 108.132727 309.611326 
L 126.830303 307.040116 
L 145.527879 304.519487 
L 164.225455 303.079252 
L 182.92303 312.304506 
L 201.620606 321.114424 
L 220.318182 321.114424 
L 239.015758 320.606598 
L 257.713333 321.114424 
L 276.410909 293.308309 
L 295.108485 321.114424 
L 313.806061 264.346654 
L 332.503636 237.281322 
L 351.201212 235.292797 
L 369.898788 321.114424 
L 388.596364 232.100174 
L 407.293939 205.09525 
L 425.991515 204.053008 
L 444.689091 202.939087 
L 463.386667 201.562727 
L 482.084242 321.114424 
L 500.781818 284.036232 
L 519.479394 211.618364 
L 538.17697 157.866909 
L 556.874545 188.444531 
L 575.572121 188.445398 
L 594.269697 129.440247 
L 612.967273 128.470841 
L 631.664848 60.753754 
L 650.362424 66.033751 
L 669.06 32.084597 
" clip-path="url(#p1fa66d970f)" style="fill: none; stroke: #4ac16d; stroke-opacity: 0.15; stroke-linecap: square"/>
   </g>
   <g id="line2d_43">
    <path d="M 52.04 321.114424 
L 70.737576 321.114424 
L 89.435152 321.114424 
L 108.132727 321.114424 
L 126.830303 321.114424 
L 145.527879 321.114424 
L 164.225455 321.114424 
L 182.92303 321.114424 
L 201.620606 321.114424 
L 220.318182 321.114424 
L 239.015758 321.114424 
L 257.713333 308.091318 
L 276.410909 258.251882 
L 295.108485 232.919573 
L 313.806061 214.557508 
L 332.503636 210.463401 
L 351.201212 204.96403 
L 369.898788 197.765743 
L 388.596364 189.77349 
L 407.293939 185.977661 
L 425.991515 184.233655 
L 444.689091 242.434146 
L 463.386667 164.394648 
L 482.084242 127.650864 
L 500.781818 110.749845 
L 519.479394 108.541657 
L 538.17697 106.590416 
L 556.874545 104.612296 
L 575.572121 103.29143 
L 594.269697 101.190761 
L 612.967273 99.340681 
L 631.664848 177.726727 
L 650.362424 135.812488 
L 669.06 88.923757 
" clip-path="url(#p1fa66d970f)" style="fill: none; stroke: #4ac16d; stroke-opacity: 0.15; stroke-linecap: square"/>
   </g>
   <g id="line2d_44">
    <path d="M 52.04 321.114424 
L 70.737576 315.831537 
L 89.435152 321.114424 
L 108.132727 321.114424 
L 126.830303 321.114424 
L 145.527879 291.546383 
L 164.225455 273.603412 
L 182.92303 255.517081 
L 201.620606 246.535479 
L 220.318182 235.05059 
L 239.015758 230.155003 
L 257.713333 222.586179 
L 276.410909 225.327627 
L 295.108485 226.292986 
L 313.806061 238.184252 
L 332.503636 249.944586 
L 351.201212 269.644859 
L 369.898788 321.114424 
L 388.596364 172.383432 
L 407.293939 170.924988 
L 425.991515 168.963053 
L 444.689091 168.319673 
L 463.386667 167.365007 
L 482.084242 166.572198 
L 500.781818 165.653084 
L 519.479394 244.56314 
L 538.17697 162.127209 
L 556.874545 123.666588 
L 575.572121 111.708846 
L 594.269697 149.745171 
L 612.967273 59.662088 
L 631.664848 177.179015 
L 650.362424 113.076535 
L 669.06 92.355119 
" clip-path="url(#p1fa66d970f)" style="fill: none; stroke: #4ac16d; stroke-opacity: 0.15; stroke-linecap: square"/>
   </g>
   <g id="line2d_45">
    <path d="M 52.04 321.114424 
L 70.737576 309.037313 
L 89.435152 301.383803 
L 108.132727 308.110972 
L 126.830303 313.714682 
L 145.527879 308.631515 
L 164.225455 321.114424 
L 182.92303 321.114424 
L 201.620606 321.114424 
L 220.318182 321.114424 
L 239.015758 321.114424 
L 257.713333 246.663231 
L 276.410909 295.463605 
L 295.108485 321.114424 
L 313.806061 277.778159 
L 332.503636 233.767876 
L 351.201212 201.540472 
L 369.898788 186.736942 
L 388.596364 175.788493 
L 407.293939 174.154896 
L 425.991515 173.035194 
L 444.689091 171.557963 
L 463.386667 170.174377 
L 482.084242 169.201792 
L 500.781818 168.045672 
L 519.479394 144.351007 
L 538.17697 134.236119 
L 556.874545 313.07766 
L 575.572121 156.186201 
L 594.269697 129.586208 
L 612.967273 128.221987 
L 631.664848 94.657531 
L 650.362424 64.141184 
L 669.06 32.084597 
" clip-path="url(#p1fa66d970f)" style="fill: none; stroke: #4ac16d; stroke-opacity: 0.15; stroke-linecap: square"/>
   </g>
   <g id="line2d_46">
    <path d="M 52.04 321.114424 
L 70.737576 317.642424 
L 89.435152 317.1683 
L 108.132727 316.213114 
L 126.830303 311.909749 
L 145.527879 309.385247 
L 164.225455 291.683268 
L 182.92303 289.087318 
L 201.620606 284.558163 
L 220.318182 283.26013 
L 239.015758 276.440008 
L 257.713333 266.698952 
L 276.410909 254.667738 
L 295.108485 257.235942 
L 313.806061 229.291671 
L 332.503636 214.962092 
L 351.201212 212.506842 
L 369.898788 233.749205 
L 388.596364 183.900057 
L 407.293939 181.80777 
L 425.991515 182.118246 
L 444.689091 187.358241 
L 463.386667 168.160822 
L 482.084242 181.318847 
L 500.781818 166.85406 
L 519.479394 164.13007 
L 538.17697 130.813602 
L 556.874545 164.426152 
L 575.572121 130.236756 
L 594.269697 131.927234 
L 612.967273 95.548726 
L 631.664848 114.331907 
L 650.362424 87.910997 
L 669.06 63.926897 
" clip-path="url(#p1fa66d970f)" style="fill: none; stroke: #4ac16d; stroke-width: 2.6; stroke-linecap: square"/>
   </g>
   <g id="line2d_47">
    <path d="M 52.04 321.114424 
L 70.737576 318.678191 
L 89.435152 316.711054 
L 108.132727 314.786694 
L 126.830303 312.351907 
L 145.527879 300.804587 
L 164.225455 286.716984 
L 182.92303 285.448432 
L 201.620606 313.568144 
L 220.318182 260.660367 
L 239.015758 259.333431 
L 257.713333 257.681048 
L 276.410909 256.552675 
L 295.108485 232.700778 
L 313.806061 210.325823 
L 332.503636 184.758244 
L 351.201212 218.172115 
L 369.898788 160.129724 
L 388.596364 158.740068 
L 407.293939 134.932103 
L 425.991515 133.733786 
L 444.689091 127.407501 
L 463.386667 188.953223 
L 482.084242 103.129862 
L 500.781818 102.592845 
L 519.479394 59.968749 
L 538.17697 59.219873 
L 556.874545 106.789847 
L 575.572121 54.1711 
L 594.269697 39.449366 
L 612.967273 36.035345 
L 631.664848 34.841363 
L 650.362424 43.482488 
L 669.06 39.902275 
" clip-path="url(#p1fa66d970f)" style="fill: none; stroke: #bddf26; stroke-opacity: 0.15; stroke-linecap: square"/>
   </g>
   <g id="line2d_48">
    <path d="M 52.04 321.114424 
L 70.737576 318.885715 
L 89.435152 316.715968 
L 108.132727 321.114424 
L 126.830303 321.114424 
L 145.527879 288.743372 
L 164.225455 321.114424 
L 182.92303 321.114424 
L 201.620606 321.114424 
L 220.318182 264.554177 
L 239.015758 237.879614 
L 257.713333 236.15006 
L 276.410909 232.553373 
L 295.108485 211.149847 
L 313.806061 210.119166 
L 332.503636 209.12606 
L 351.201212 208.441348 
L 369.898788 208.022833 
L 388.596364 207.300837 
L 407.293939 206.24819 
L 425.991515 273.784634 
L 444.689091 276.623774 
L 463.386667 205.943841 
L 482.084242 170.596072 
L 500.781818 255.93444 
L 519.479394 134.443932 
L 538.17697 130.930196 
L 556.874545 182.106685 
L 575.572121 106.424513 
L 594.269697 105.51378 
L 612.967273 276.081554 
L 631.664848 73.729748 
L 650.362424 56.217431 
L 669.06 243.146027 
" clip-path="url(#p1fa66d970f)" style="fill: none; stroke: #bddf26; stroke-opacity: 0.15; stroke-linecap: square"/>
   </g>
   <g id="line2d_49">
    <path d="M 52.04 321.114424 
L 70.737576 321.114424 
L 89.435152 321.114424 
L 108.132727 321.114424 
L 126.830303 321.114424 
L 145.527879 321.114424 
L 164.225455 321.114424 
L 182.92303 321.114424 
L 201.620606 321.114424 
L 220.318182 321.114424 
L 239.015758 250.522935 
L 257.713333 321.114424 
L 276.410909 286.602817 
L 295.108485 233.089812 
L 313.806061 202.197437 
L 332.503636 201.807825 
L 351.201212 199.768719 
L 369.898788 321.114424 
L 388.596364 312.555673 
L 407.293939 277.842901 
L 425.991515 236.508457 
L 444.689091 217.359364 
L 463.386667 195.23413 
L 482.084242 264.174392 
L 500.781818 181.758115 
L 519.479394 157.066296 
L 538.17697 129.202087 
L 556.874545 98.034844 
L 575.572121 66.711237 
L 594.269697 70.061093 
L 612.967273 64.961739 
L 631.664848 64.294948 
L 650.362424 91.227036 
L 669.06 56.534497 
" clip-path="url(#p1fa66d970f)" style="fill: none; stroke: #bddf26; stroke-opacity: 0.15; stroke-linecap: square"/>
   </g>
   <g id="line2d_50">
    <path d="M 52.04 321.114424 
L 70.737576 321.114424 
L 89.435152 321.114424 
L 108.132727 321.114424 
L 126.830303 314.15314 
L 145.527879 244.635686 
L 164.225455 240.956048 
L 182.92303 321.114424 
L 201.620606 281.037259 
L 220.318182 217.162245 
L 239.015758 197.573827 
L 257.713333 193.374512 
L 276.410909 190.414558 
L 295.108485 189.167972 
L 313.806061 186.216689 
L 332.503636 184.046942 
L 351.201212 181.948007 
L 369.898788 259.660324 
L 388.596364 146.987537 
L 407.293939 144.985139 
L 425.991515 143.167719 
L 444.689091 141.634705 
L 463.386667 140.643333 
L 482.084242 140.219904 
L 500.781818 139.733756 
L 519.479394 138.588331 
L 538.17697 136.409913 
L 556.874545 135.565079 
L 575.572121 134.74539 
L 594.269697 133.927725 
L 612.967273 103.259926 
L 631.664848 98.862626 
L 650.362424 64.973301 
L 669.06 69.127526 
" clip-path="url(#p1fa66d970f)" style="fill: none; stroke: #bddf26; stroke-opacity: 0.15; stroke-linecap: square"/>
   </g>
   <g id="line2d_51">
    <path d="M 52.04 321.114424 
L 70.737576 310.514544 
L 89.435152 303.038787 
L 108.132727 301.842204 
L 126.830303 304.841467 
L 145.527879 318.56836 
L 164.225455 320.034319 
L 182.92303 321.114424 
L 201.620606 317.875556 
L 220.318182 321.114424 
L 239.015758 321.114424 
L 257.713333 250.749823 
L 276.410909 248.91564 
L 295.108485 245.475896 
L 313.806061 243.807327 
L 332.503636 241.026282 
L 351.201212 239.348753 
L 369.898788 237.221204 
L 388.596364 235.462747 
L 407.293939 233.746199 
L 425.991515 321.114424 
L 444.689091 214.687861 
L 463.386667 321.114424 
L 482.084242 186.405714 
L 500.781818 128.74542 
L 519.479394 100.414716 
L 538.17697 71.499594 
L 556.874545 74.592791 
L 575.572121 48.994576 
L 594.269697 51.249008 
L 612.967273 54.270237 
L 631.664848 36.197202 
L 650.362424 34.131217 
L 669.06 33.732645 
" clip-path="url(#p1fa66d970f)" style="fill: none; stroke: #bddf26; stroke-opacity: 0.15; stroke-linecap: square"/>
   </g>
   <g id="line2d_52">
    <path d="M 52.04 321.114424 
L 70.737576 318.06146 
L 89.435152 315.738932 
L 108.132727 315.994434 
L 126.830303 314.715072 
L 145.527879 294.773286 
L 164.225455 297.98724 
L 182.92303 313.981226 
L 201.620606 310.941961 
L 220.318182 276.921127 
L 239.015758 253.284846 
L 257.713333 251.813973 
L 276.410909 243.007813 
L 295.108485 222.316861 
L 313.806061 210.533288 
L 332.503636 204.15307 
L 351.201212 209.535789 
L 369.898788 237.229702 
L 388.596364 212.209372 
L 407.293939 199.550906 
L 425.991515 221.661804 
L 444.689091 195.542641 
L 463.386667 210.37779 
L 482.084242 172.905189 
L 500.781818 161.752915 
L 519.479394 118.096405 
L 538.17697 105.452333 
L 556.874545 119.417849 
L 575.572121 82.209363 
L 594.269697 80.040194 
L 612.967273 106.92176 
L 631.664848 61.585177 
L 650.362424 58.006294 
L 669.06 88.488594 
" clip-path="url(#p1fa66d970f)" style="fill: none; stroke: #bddf26; stroke-width: 2.6; stroke-linecap: square"/>
   </g>
   <g id="line2d_53">
    <path d="M 52.04 141.915931 
L 669.06 141.915931 
" clip-path="url(#p1fa66d970f)" style="fill: none; stroke-dasharray: 3.7,1.6; stroke-dashoffset: 0; stroke: #666666"/>
   </g>
   <g id="patch_3">
    <path d="M 52.04 326.89502 
L 52.04 26.304 
" style="fill: none; stroke: #000000; stroke-width: 0.8; stroke-linejoin: miter; stroke-linecap: square"/>
   </g>
   <g id="patch_4">
    <path d="M 52.04 326.89502 
L 669.06 326.89502 
" style="fill: none; stroke: #000000; stroke-width: 0.8; stroke-linejoin: miter; stroke-linecap: square"/>
   </g>
   <g id="text_14">
    <text style="font: 13px 'DejaVu Serif'; text-anchor: middle" x="360.55" y="20.304" transform="rotate(-0 360.55 20.304)">Canonical Cluster-Scale Transition Signal</text>
   </g>
   <g id="legend_1">
    <g id="line2d_54">
     <path d="M 500.301563 287.352677 
L 509.301563 287.352677 
L 518.301563 287.352677 
" style="fill: none; stroke: #463480; stroke-width: 2.6; stroke-linecap: square"/>
    </g>
    <g id="text_15">
     <text style="font: 9px 'DejaVu Serif'; text-anchor: start" x="525.501563" y="290.502677" transform="rotate(-0 525.501563 290.502677)">scale 0.50</text>
    </g>
    <g id="line2d_55">
     <path d="M 500.301563 300.562989 
L 509.301563 300.562989 
L 518.301563 300.562989 
" style="fill: none; stroke: #30698e; stroke-width: 2.6; stroke-linecap: square"/>
    </g>
    <g id="text_16">
     <text style="font: 9px 'DejaVu Serif'; text-anchor: start" x="525.501563" y="303.712989" transform="rotate(-0 525.501563 303.712989)">scale 0.75</text>
    </g>
    <g id="line2d_56">
     <path d="M 500.301563 313.773302 
L 509.301563 313.773302 
L 518.301563 313.773302 
" style="fill: none; stroke: #1f968b; stroke-width: 2.6; stroke-linecap: square"/>
    </g>
    <g id="text_17">
     <text style="font: 9px 'DejaVu Serif'; text-anchor: start" x="525.501563" y="316.923302" transform="rotate(-0 525.501563 316.923302)">scale 1.00</text>
    </g>
    <g id="line2d_57">
     <path d="M 589.630781 287.352677 
L 598.630781 287.352677 
L 607.630781 287.352677 
" style="fill: none; stroke: #4ac16d; stroke-width: 2.6; stroke-linecap: square"/>
    </g>
    <g id="text_18">
     <text style="font: 9px 'DejaVu Serif'; text-anchor: start" x="614.830781" y="290.502677" transform="rotate(-0 614.830781 290.502677)">scale 1.25</text>
    </g>
    <g id="line2d_58">
     <path d="M 589.630781 300.562989 
L 598.630781 300.562989 
L 607.630781 300.562989 
" style="fill: none; stroke: #bddf26; stroke-width: 2.6; stroke-linecap: square"/>
    </g>
    <g id="text_19">
     <text style="font: 9px 'DejaVu Serif'; text-anchor: start" x="614.830781" y="303.712989" transform="rotate(-0 614.830781 303.712989)">scale 1.50</text>
    </g>
   </g>
  </g>
  <g id="axes_2">
   <g id="patch_5">
    <path d="M 52.04 545.704 
L 669.06 545.704 
L 669.06 386.01502 
L 52.04 386.01502 
z
" style="fill: #ffffff"/>
   </g>
   <g id="matplotlib.axis_3">
    <g id="xtick_6">
     <g id="line2d_59">
      <path d="M 136.179091 545.704 
L 136.179091 386.01502 
" clip-path="url(#p3843427790)" style="fill: none; stroke: #777777; stroke-opacity: 0.2; stroke-width: 0.8; stroke-linecap: square"/>
     </g>
     <g id="line2d_60">
      <g>
       <use xlink:href="#mb68e3af0b6" x="136.179091" y="545.704" style="stroke: #000000; stroke-width: 0.8"/>
      </g>
     </g>
     <g id="text_20">
      <text style="font: 10px 'DejaVu Serif'; text-anchor: middle" x="136.179091" y="560.302437" transform="rotate(-0 136.179091 560.302437)">0.6</text>
     </g>
    </g>
    <g id="xtick_7">
     <g id="line2d_61">
      <path d="M 248.364545 545.704 
L 248.364545 386.01502 
" clip-path="url(#p3843427790)" style="fill: none; stroke: #777777; stroke-opacity: 0.2; stroke-width: 0.8; stroke-linecap: square"/>
     </g>
     <g id="line2d_62">
      <g>
       <use xlink:href="#mb68e3af0b6" x="248.364545" y="545.704" style="stroke: #000000; stroke-width: 0.8"/>
      </g>
     </g>
     <g id="text_21">
      <text style="font: 10px 'DejaVu Serif'; text-anchor: middle" x="248.364545" y="560.302437" transform="rotate(-0 248.364545 560.302437)">0.8</text>
     </g>
    </g>
    <g id="xtick_8">
     <g id="line2d_63">
      <path d="M 360.55 545.704 
L 360.55 386.01502 
" clip-path="url(#p3843427790)" style="fill: none; stroke: #777777; stroke-opacity: 0.2; stroke-width: 0.8; stroke-linecap: square"/>
     </g>
     <g id="line2d_64">
      <g>
       <use xlink:href="#mb68e3af0b6" x="360.55" y="545.704" style="stroke: #000000; stroke-width: 0.8"/>
      </g>
     </g>
     <g id="text_22">
      <text style="font: 10px 'DejaVu Serif'; text-anchor: middle" x="360.55" y="560.302437" transform="rotate(-0 360.55 560.302437)">1.0</text>
     </g>
    </g>
    <g id="xtick_9">
     <g id="line2d_65">
      <path d="M 472.735455 545.704 
L 472.735455 386.01502 
" clip-path="url(#p3843427790)" style="fill: none; stroke: #777777; stroke-opacity: 0.2; stroke-width: 0.8; stroke-linecap: square"/>
     </g>
     <g id="line2d_66">
      <g>
       <use xlink:href="#mb68e3af0b6" x="472.735455" y="545.704" style="stroke: #000000; stroke-width: 0.8"/>
      </g>
     </g>
     <g id="text_23">
      <text style="font: 10px 'DejaVu Serif'; text-anchor: middle" x="472.735455" y="560.302437" transform="rotate(-0 472.735455 560.302437)">1.2</text>
     </g>
    </g>
    <g id="xtick_10">
     <g id="line2d_67">
      <path d="M 584.920909 545.704 
L 584.920909 386.01502 
" clip-path="url(#p3843427790)" style="fill: none; stroke: #777777; stroke-opacity: 0.2; stroke-width: 0.8; stroke-linecap: square"/>
     </g>
     <g id="line2d_68">
      <g>
       <use xlink:href="#mb68e3af0b6" x="584.920909" y="545.704" style="stroke: #000000; stroke-width: 0.8"/>
      </g>
     </g>
     <g id="text_24">
      <text style="font: 10px 'DejaVu Serif'; text-anchor: middle" x="584.920909" y="560.302437" transform="rotate(-0 584.920909 560.302437)">1.4</text>
     </g>
    </g>
    <g id="text_25">
     <text style="font: 11px 'DejaVu Serif'; text-anchor: middle" x="360.55" y="574.740406" transform="rotate(-0 360.55 574.740406)">Cluster scale</text>
    </g>
   </g>
   <g id="matplotlib.axis_4">
    <g id="ytick_7">
     <g id="line2d_69">
      <path d="M 52.04 541.761062 
L 669.06 541.761062 
" clip-path="url(#p3843427790)" style="fill: none; stroke: #777777; stroke-opacity: 0.2; stroke-width: 0.8; stroke-linecap: square"/>
     </g>
     <g id="line2d_70">
      <g>
       <use xlink:href="#m72993b0be2" x="52.04" y="541.761062" style="stroke: #000000; stroke-width: 0.8"/>
      </g>
     </g>
     <g id="text_26">
      <text style="font: 10px 'DejaVu Serif'; text-anchor: end" x="45.04" y="545.560281" transform="rotate(-0 45.04 545.560281)">0.10</text>
     </g>
    </g>
    <g id="ytick_8">
     <g id="line2d_71">
      <path d="M 52.04 502.331685 
L 669.06 502.331685 
" clip-path="url(#p3843427790)" style="fill: none; stroke: #777777; stroke-opacity: 0.2; stroke-width: 0.8; stroke-linecap: square"/>
     </g>
     <g id="line2d_72">
      <g>
       <use xlink:href="#m72993b0be2" x="52.04" y="502.331685" style="stroke: #000000; stroke-width: 0.8"/>
      </g>
     </g>
     <g id="text_27">
      <text style="font: 10px 'DejaVu Serif'; text-anchor: end" x="45.04" y="506.130903" transform="rotate(-0 45.04 506.130903)">0.12</text>
     </g>
    </g>
    <g id="ytick_9">
     <g id="line2d_73">
      <path d="M 52.04 462.902307 
L 669.06 462.902307 
" clip-path="url(#p3843427790)" style="fill: none; stroke: #777777; stroke-opacity: 0.2; stroke-width: 0.8; stroke-linecap: square"/>
     </g>
     <g id="line2d_74">
      <g>
       <use xlink:href="#m72993b0be2" x="52.04" y="462.902307" style="stroke: #000000; stroke-width: 0.8"/>
      </g>
     </g>
     <g id="text_28">
      <text style="font: 10px 'DejaVu Serif'; text-anchor: end" x="45.04" y="466.701526" transform="rotate(-0 45.04 466.701526)">0.14</text>
     </g>
    </g>
    <g id="ytick_10">
     <g id="line2d_75">
      <path d="M 52.04 423.472929 
L 669.06 423.472929 
" clip-path="url(#p3843427790)" style="fill: none; stroke: #777777; stroke-opacity: 0.2; stroke-width: 0.8; stroke-linecap: square"/>
     </g>
     <g id="line2d_76">
      <g>
       <use xlink:href="#m72993b0be2" x="52.04" y="423.472929" style="stroke: #000000; stroke-width: 0.8"/>
      </g>
     </g>
     <g id="text_29">
      <text style="font: 10px 'DejaVu Serif'; text-anchor: end" x="45.04" y="427.272148" transform="rotate(-0 45.04 427.272148)">0.16</text>
     </g>
    </g>
    <g id="text_30">
     <text style="font: 11px 'DejaVu Serif'; text-anchor: middle" x="16.486719" y="465.85951" transform="rotate(-90 16.486719 465.85951)">Onset kernel width</text>
    </g>
   </g>
   <g id="LineCollection_1">
    <path d="M 80.086364 527.96078 
L 80.086364 510.21756 
" clip-path="url(#p3843427790)" style="fill: none; stroke: #463480; stroke-width: 2"/>
   </g>
   <g id="line2d_77">
    <defs>
     <path id="m7108d8d6fd" d="M 4 0 
L -4 -0 
" style="stroke: #463480"/>
    </defs>
    <g clip-path="url(#p3843427790)">
     <use xlink:href="#m7108d8d6fd" x="80.086364" y="527.96078" style="fill: #463480; stroke: #463480"/>
    </g>
   </g>
   <g id="line2d_78">
    <g clip-path="url(#p3843427790)">
     <use xlink:href="#m7108d8d6fd" x="80.086364" y="510.21756" style="fill: #463480; stroke: #463480"/>
    </g>
   </g>
   <g id="LineCollection_2">
    <path d="M 220.318182 533.875187 
L 220.318182 468.816714 
" clip-path="url(#p3843427790)" style="fill: none; stroke: #30698e; stroke-width: 2"/>
   </g>
   <g id="line2d_79">
    <defs>
     <path id="mf0c814ef7e" d="M 4 0 
L -4 -0 
" style="stroke: #30698e"/>
    </defs>
    <g clip-path="url(#p3843427790)">
     <use xlink:href="#mf0c814ef7e" x="220.318182" y="533.875187" style="fill: #30698e; stroke: #30698e"/>
    </g>
   </g>
   <g id="line2d_80">
    <g clip-path="url(#p3843427790)">
     <use xlink:href="#mf0c814ef7e" x="220.318182" y="468.816714" style="fill: #30698e; stroke: #30698e"/>
    </g>
   </g>
   <g id="LineCollection_3">
    <path d="M 360.55 522.046373 
L 360.55 462.902307 
" clip-path="url(#p3843427790)" style="fill: none; stroke: #1f968b; stroke-width: 2"/>
   </g>
   <g id="line2d_81">
    <defs>
     <path id="m5a6d44d2a5" d="M 4 0 
L -4 -0 
" style="stroke: #1f968b"/>
    </defs>
    <g clip-path="url(#p3843427790)">
     <use xlink:href="#m5a6d44d2a5" x="360.55" y="522.046373" style="fill: #1f968b; stroke: #1f968b"/>
    </g>
   </g>
   <g id="line2d_82">
    <g clip-path="url(#p3843427790)">
     <use xlink:href="#m5a6d44d2a5" x="360.55" y="462.902307" style="fill: #1f968b; stroke: #1f968b"/>
    </g>
   </g>
   <g id="LineCollection_4">
    <path d="M 500.781818 451.073494 
L 500.781818 409.672647 
" clip-path="url(#p3843427790)" style="fill: none; stroke: #4ac16d; stroke-width: 2"/>
   </g>
   <g id="line2d_83">
    <defs>
     <path id="m730032677a" d="M 4 0 
L -4 -0 
" style="stroke: #4ac16d"/>
    </defs>
    <g clip-path="url(#p3843427790)">
     <use xlink:href="#m730032677a" x="500.781818" y="451.073494" style="fill: #4ac16d; stroke: #4ac16d"/>
    </g>
   </g>
   <g id="line2d_84">
    <g clip-path="url(#p3843427790)">
     <use xlink:href="#m730032677a" x="500.781818" y="409.672647" style="fill: #4ac16d; stroke: #4ac16d"/>
    </g>
   </g>
   <g id="LineCollection_5">
    <path d="M 641.013636 468.816714 
L 641.013636 427.415867 
" clip-path="url(#p3843427790)" style="fill: none; stroke: #bddf26; stroke-width: 2"/>
   </g>
   <g id="line2d_85">
    <defs>
     <path id="mce7d1e8de4" d="M 4 0 
L -4 -0 
" style="stroke: #bddf26"/>
    </defs>
    <g clip-path="url(#p3843427790)">
     <use xlink:href="#mce7d1e8de4" x="641.013636" y="468.816714" style="fill: #bddf26; stroke: #bddf26"/>
    </g>
   </g>
   <g id="line2d_86">
    <g clip-path="url(#p3843427790)">
     <use xlink:href="#mce7d1e8de4" x="641.013636" y="427.415867" style="fill: #bddf26; stroke: #bddf26"/>
    </g>
   </g>
   <g id="line2d_87">
    <path d="M 80.086364 518.497729 
L 220.318182 509.034679 
L 360.55 487.742815 
L 500.781818 430.964511 
L 641.013636 445.159087 
" clip-path="url(#p3843427790)" style="fill: none; stroke: #303030; stroke-opacity: 0.7; stroke-width: 1.2; stroke-linecap: square"/>
   </g>
   <g id="line2d_88">
    <defs>
     <path id="m52a60f1e3a" d="M 0 3 
C 0.795609 3 1.55874 2.683901 2.12132 2.12132 
C 2.683901 1.55874 3 0.795609 3 0 
C 3 -0.795609 2.683901 -1.55874 2.12132 -2.12132 
C 1.55874 -2.683901 0.795609 -3 0 -3 
C -0.795609 -3 -1.55874 -2.683901 -2.12132 -2.12132 
C -2.683901 -1.55874 -3 -0.795609 -3 0 
C -3 0.795609 -2.683901 1.55874 -2.12132 2.12132 
C -1.55874 2.683901 -0.795609 3 0 3 
z
" style="stroke: #463480"/>
    </defs>
    <g clip-path="url(#p3843427790)">
     <use xlink:href="#m52a60f1e3a" x="80.086364" y="518.497729" style="fill: #463480; stroke: #463480"/>
    </g>
   </g>
   <g id="line2d_89">
    <defs>
     <path id="m5b617f0ef4" d="M 0 3 
C 0.795609 3 1.55874 2.683901 2.12132 2.12132 
C 2.683901 1.55874 3 0.795609 3 0 
C 3 -0.795609 2.683901 -1.55874 2.12132 -2.12132 
C 1.55874 -2.683901 0.795609 -3 0 -3 
C -0.795609 -3 -1.55874 -2.683901 -2.12132 -2.12132 
C -2.683901 -1.55874 -3 -0.795609 -3 0 
C -3 0.795609 -2.683901 1.55874 -2.12132 2.12132 
C -1.55874 2.683901 -0.795609 3 0 3 
z
" style="stroke: #30698e"/>
    </defs>
    <g clip-path="url(#p3843427790)">
     <use xlink:href="#m5b617f0ef4" x="220.318182" y="509.034679" style="fill: #30698e; stroke: #30698e"/>
    </g>
   </g>
   <g id="line2d_90">
    <defs>
     <path id="mafb12be915" d="M 0 3 
C 0.795609 3 1.55874 2.683901 2.12132 2.12132 
C 2.683901 1.55874 3 0.795609 3 0 
C 3 -0.795609 2.683901 -1.55874 2.12132 -2.12132 
C 1.55874 -2.683901 0.795609 -3 0 -3 
C -0.795609 -3 -1.55874 -2.683901 -2.12132 -2.12132 
C -2.683901 -1.55874 -3 -0.795609 -3 0 
C -3 0.795609 -2.683901 1.55874 -2.12132 2.12132 
C -1.55874 2.683901 -0.795609 3 0 3 
z
" style="stroke: #1f968b"/>
    </defs>
    <g clip-path="url(#p3843427790)">
     <use xlink:href="#mafb12be915" x="360.55" y="487.742815" style="fill: #1f968b; stroke: #1f968b"/>
    </g>
   </g>
   <g id="line2d_91">
    <defs>
     <path id="mcdf1ad52aa" d="M 0 3 
C 0.795609 3 1.55874 2.683901 2.12132 2.12132 
C 2.683901 1.55874 3 0.795609 3 0 
C 3 -0.795609 2.683901 -1.55874 2.12132 -2.12132 
C 1.55874 -2.683901 0.795609 -3 0 -3 
C -0.795609 -3 -1.55874 -2.683901 -2.12132 -2.12132 
C -2.683901 -1.55874 -3 -0.795609 -3 0 
C -3 0.795609 -2.683901 1.55874 -2.12132 2.12132 
C -1.55874 2.683901 -0.795609 3 0 3 
z
" style="stroke: #4ac16d"/>
    </defs>
    <g clip-path="url(#p3843427790)">
     <use xlink:href="#mcdf1ad52aa" x="500.781818" y="430.964511" style="fill: #4ac16d; stroke: #4ac16d"/>
    </g>
   </g>
   <g id="line2d_92">
    <defs>
     <path id="mf67584543c" d="M 0 3 
C 0.795609 3 1.55874 2.683901 2.12132 2.12132 
C 2.683901 1.55874 3 0.795609 3 0 
C 3 -0.795609 2.683901 -1.55874 2.12132 -2.12132 
C 1.55874 -2.683901 0.795609 -3 0 -3 
C -0.795609 -3 -1.55874 -2.683901 -2.12132 -2.12132 
C -2.683901 -1.55874 -3 -0.795609 -3 0 
C -3 0.795609 -2.683901 1.55874 -2.12132 2.12132 
C -1.55874 2.683901 -0.795609 3 0 3 
z
" style="stroke: #bddf26"/>
    </defs>
    <g clip-path="url(#p3843427790)">
     <use xlink:href="#mf67584543c" x="641.013636" y="445.159087" style="fill: #bddf26; stroke: #bddf26"/>
    </g>
   </g>
   <g id="patch_6">
    <path d="M 52.04 545.704 
L 52.04 386.01502 
" style="fill: none; stroke: #000000; stroke-width: 0.8; stroke-linejoin: miter; stroke-linecap: square"/>
   </g>
   <g id="patch_7">
    <path d="M 52.04 545.704 
L 669.06 545.704 
" style="fill: none; stroke: #000000; stroke-width: 0.8; stroke-linejoin: miter; stroke-linecap: square"/>
   </g>
   <g id="text_31">
    <text style="fill: #463480; font: 8.5px 'DejaVu Serif'; text-anchor: middle" x="80.086364" y="502.535419" transform="rotate(-0 80.086364 502.535419)">5/5</text>
   </g>
   <g id="text_32">
    <text style="fill: #30698e; font: 8.5px 'DejaVu Serif'; text-anchor: middle" x="220.318182" y="461.134573" transform="rotate(-0 220.318182 461.134573)">5/5</text>
   </g>
   <g id="text_33">
    <text style="fill: #1f968b; font: 8.5px 'DejaVu Serif'; text-anchor: middle" x="360.55" y="455.220166" transform="rotate(-0 360.55 455.220166)">5/5</text>
   </g>
   <g id="text_34">
    <text style="fill: #4ac16d; font: 8.5px 'DejaVu Serif'; text-anchor: middle" x="500.781818" y="401.990506" transform="rotate(-0 500.781818 401.990506)">5/5</text>
   </g>
   <g id="text_35">
    <text style="fill: #bddf26; font: 8.5px 'DejaVu Serif'; text-anchor: middle" x="641.013636" y="419.733726" transform="rotate(-0 641.013636 419.733726)">5/5</text>
   </g>
   <g id="text_36">
    <text style="font: 13px 'DejaVu Serif'; text-anchor: middle" x="360.55" y="380.01502" transform="rotate(-0 360.55 380.01502)">Onset Location by Cluster Scale</text>
   </g>
  </g>
  <g id="text_37">
   <text style="font: 700 14px 'DejaVu Serif'; text-anchor: start" x="7.2" y="17.837813" transform="rotate(-0 7.2 17.837813)">A</text>
  </g>
  <g id="text_38">
   <text style="font: 700 14px 'DejaVu Serif'; text-anchor: start" x="7.2" y="386.837813" transform="rotate(-0 7.2 386.837813)">B</text>
  </g>
 </g>
 <defs>
  <clipPath id="p1fa66d970f">
   <rect x="52.04" y="26.304" width="617.02" height="300.59102"/>
  </clipPath>
  <clipPath id="p3843427790">
   <rect x="52.04" y="386.01502" width="617.02" height="159.68898"/>
  </clipPath>
 </defs>
</svg>
